<svg width="366" height="65" viewBox="0 0 366 65" fill="none" xmlns="http://www.w3.org/2000/svg">
<path d="M97.8262 22.5787C98.3551 22.4104 98.8118 22.4104 99.1965 22.5787C99.6052 22.7229 100.014 22.9032 100.423 23.1196C100.831 23.3359 101.204 23.5764 101.54 23.8408C101.877 24.0812 102.105 24.3096 102.226 24.5259C101.793 24.9346 101.36 25.4635 100.927 26.1126C100.495 26.7617 100.062 27.5069 99.6292 28.3483C99.2205 29.1897 98.8118 30.1033 98.4031 31.0889C97.9945 32.0746 97.6098 33.0963 97.2492 34.154C96.2395 37.2793 95.5664 39.4789 95.2298 40.7531C94.8933 42.0272 94.6048 43.2412 94.3644 44.3952C94.148 45.5491 93.9677 46.6069 93.8235 47.5685C93.7033 48.5301 93.6432 49.3354 93.6432 49.9845C93.6432 50.2249 93.6432 50.4172 93.6432 50.5615C93.6672 50.7057 93.6913 50.8259 93.7153 50.9221C93.1864 50.898 92.8018 50.8019 92.5614 50.6336C92.321 50.4894 92.1407 50.3211 92.0205 50.1288C91.9003 49.9605 91.7921 49.7802 91.6959 49.5879C91.5998 49.4196 91.4435 49.2874 91.2271 49.1912C91.0589 49.1191 90.9026 48.9508 90.7584 48.6863C90.6141 48.4219 90.4939 48.1214 90.3978 47.7848C90.3016 47.4483 90.2295 47.1117 90.1814 46.7752C90.1333 46.4386 90.1093 46.1621 90.1093 45.9458C90.1093 44.9361 90.2776 43.6379 90.6141 42.0513C90.9507 40.4646 91.5517 38.325 92.4171 35.6325C93.2826 32.94 93.9557 30.9928 94.4365 29.7907C94.8212 28.8051 95.2058 27.8795 95.5904 27.0141C95.0616 27.3507 94.4365 27.8555 93.7153 28.5286C92.7537 29.4422 91.732 30.56 90.6502 31.8822C89.5924 33.2045 88.4866 34.6709 87.3326 36.2816C86.2027 37.8923 85.145 39.5511 84.1593 41.2579C83.1737 42.9407 82.2722 44.6356 81.4548 46.3424C80.6615 48.0252 80.0484 49.5758 79.6157 50.9942C79.5676 51.0182 79.5196 51.0303 79.4715 51.0303C79.4234 51.0303 79.3393 51.0182 79.2191 50.9942C78.9306 50.9942 78.6181 50.9221 78.2815 50.7778C77.6564 50.5374 77.1155 50.2129 76.6588 49.8042C76.0578 49.2753 75.5048 48.6022 75 47.7848C75.1923 47.4002 75.4087 46.9074 75.6491 46.3064C75.9135 45.7054 76.214 44.9842 76.5506 44.1427C76.9112 43.2773 77.3079 42.2796 77.7406 41.1497C78.1973 39.9958 78.7142 38.6616 79.2912 37.147L80.5533 33.9377C81.0581 32.6395 81.4668 31.5457 81.7793 30.6562C82.1159 29.7667 82.3924 28.9013 82.6087 28.0599C82.8491 27.1944 83.0655 26.2448 83.2578 25.2111C83.4742 24.1774 83.7266 22.8672 84.0151 21.2805C85.0248 21.4728 85.9383 21.9176 86.7557 22.6147C87.5971 23.3119 88.3183 24.1533 88.9193 25.139C88.7029 25.4274 88.4385 25.8602 88.126 26.4371C87.8134 27.0141 87.4648 27.7113 87.0802 28.5286C86.7196 29.322 86.3229 30.2235 85.8902 31.2332C85.4575 32.2188 84.6041 34.1781 83.3299 37.111C82.9693 37.9284 82.6448 38.6976 82.3563 39.4188C86.5633 34.5146 89.1717 31.4495 90.1814 30.2235C91.2151 28.9493 92.2128 27.7954 93.1744 26.7617C94.136 25.7039 95.0135 24.7904 95.8068 24.0211C96.6242 23.2278 97.2973 22.747 97.8262 22.5787Z" fill="white"/>
<path d="M100.596 46.7752C100.788 46.4145 101.016 45.9458 101.281 45.3688C101.521 44.7918 101.81 44.0947 102.146 43.2773C102.507 42.4359 102.904 41.4743 103.336 40.3925C103.793 39.2866 104.731 36.9788 106.149 33.4689C106.654 32.2188 107.063 31.1731 107.375 30.3317C107.712 29.4662 107.988 28.6248 108.205 27.8074C108.445 26.966 108.661 26.0525 108.854 25.0668C109.07 24.0812 109.322 22.8191 109.611 21.2805C110.621 21.4728 111.534 21.9056 112.351 22.5787C113.193 23.2518 113.914 24.0572 114.515 24.9947C114.299 25.2832 114.034 25.7039 113.722 26.2568C113.409 26.8098 113.061 27.4709 112.676 28.2402C112.315 29.0094 111.919 29.8749 111.486 30.8365C111.053 31.7981 110.584 32.8078 110.08 33.8656C108.012 38.4813 106.666 41.8109 106.041 43.8543C105.728 44.7918 105.452 45.7294 105.211 46.667C105.26 46.667 105.296 46.655 105.32 46.6309C106.474 46.5588 108.168 46.4386 110.404 46.2703C112.327 46.1501 113.674 46.0419 114.443 45.9458C114.443 44.9361 114.611 43.6379 114.948 42.0513C115.284 40.4646 116.102 37.6038 117.4 33.4689C117.833 32.2188 118.277 31.0048 118.734 29.8268C119.215 28.6248 119.684 27.531 120.14 26.5453C120.597 25.5597 121.03 24.6942 121.439 23.949C121.871 23.2037 122.256 22.6508 122.593 22.2902C122.833 22.3142 123.145 22.4104 123.53 22.5787C123.939 22.7229 124.348 22.9032 124.756 23.1196C125.165 23.3359 125.537 23.5764 125.874 23.8408C126.211 24.0812 126.439 24.3096 126.559 24.5259C126.126 24.9346 125.694 25.4635 125.261 26.1126C124.828 26.7617 124.396 27.5069 123.963 28.3483C123.554 29.1897 123.145 30.1033 122.737 31.0889C122.328 32.0746 121.775 33.6131 121.078 35.7046C120.405 37.7961 119.9 39.4789 119.563 40.7531C119.227 42.0272 118.938 43.2412 118.698 44.3952C118.482 45.5491 118.313 46.6069 118.193 47.5685C118.169 47.6646 118.157 47.7488 118.157 47.8209C118.205 47.9651 118.241 48.1094 118.265 48.2536C118.626 48.5902 118.975 48.9147 119.311 49.2273C119.696 49.6119 120.032 50.0086 120.321 50.4172C120.681 50.9702 120.922 51.5832 121.042 52.2563C121.186 52.9294 121.222 53.6026 121.15 54.2757C121.078 54.9729 120.91 55.646 120.645 56.2951C120.381 56.9442 120.032 57.4971 119.6 57.9538C119.335 58.05 118.914 58.074 118.337 58.026C117.785 57.9779 117.208 57.8937 116.607 57.7735C116.006 57.6533 115.441 57.4971 114.912 57.3048C114.383 57.1124 114.01 56.9201 113.794 56.7278C113.577 56.3432 113.385 55.8984 113.217 55.3936C113.049 54.9128 112.928 54.456 112.856 54.0233C112.808 53.5905 112.796 53.2059 112.82 52.8693C112.868 52.5328 112.976 52.3044 113.145 52.1842C113.361 52.064 113.59 52.1361 113.83 52.4006C113.878 52.4486 113.914 52.5568 113.938 52.7251C113.986 52.8934 114.022 53.0737 114.046 53.266C114.094 53.4583 114.142 53.6507 114.191 53.843C114.263 54.0353 114.335 54.1916 114.407 54.3118C114.599 54.6002 114.816 54.7926 115.056 54.8887C115.32 55.0089 115.573 54.9969 115.813 54.8527C116.607 54.3238 116.883 53.4103 116.643 52.1121C116.498 51.2707 116.126 50.3091 115.525 49.2273C112.76 49.4196 108.06 49.7802 101.425 50.3091H101.281C100.464 50.3091 99.8025 50.0927 99.2976 49.66C98.8168 49.2273 98.5764 48.6623 98.5764 47.9651C98.5764 47.7728 98.6004 47.5444 98.6485 47.28C98.6966 47.0156 98.7687 46.7872 98.8649 46.5949C99.2736 46.667 99.6702 46.7151 100.055 46.7391C100.223 46.7391 100.403 46.7511 100.596 46.7752Z" fill="white"/>
<path d="M152.418 17.999C152.562 18.1192 152.694 18.3236 152.814 18.612C152.934 18.8765 152.995 19.1289 152.995 19.3693C151.792 20.403 150.927 21.3887 150.398 22.3263C149.893 23.2638 149.641 24.2855 149.641 25.3914C149.641 26.1126 149.665 26.7376 149.713 27.2665C149.785 27.7714 149.905 28.3604 150.074 29.0335C149.449 29.0094 148.848 28.9133 148.271 28.745C147.694 28.5767 147.165 28.3844 146.684 28.168C146.227 27.9276 145.843 27.6632 145.53 27.3747C145.217 27.0622 145.025 26.7617 144.953 26.4732C146.083 22.4825 148.571 19.6578 152.418 17.999ZM145.205 17.999C145.35 18.1192 145.482 18.3236 145.602 18.612C145.722 18.8765 145.782 19.1289 145.782 19.3693C144.58 20.403 143.715 21.3887 143.186 22.3263C142.681 23.2638 142.429 24.2855 142.429 25.3914C142.429 26.1126 142.453 26.7376 142.501 27.2665C142.573 27.7714 142.693 28.3604 142.862 29.0335C142.237 29.0094 141.636 28.9133 141.059 28.745C140.482 28.5767 139.953 28.3844 139.472 28.168C139.015 27.9276 138.63 27.6632 138.318 27.3747C138.005 27.0622 137.813 26.7617 137.741 26.4732C138.871 22.4825 141.359 19.6578 145.205 17.999Z" fill="white"/>
<path d="M170.334 22.5787C170.863 22.4104 171.32 22.4104 171.704 22.5787C172.113 22.7229 172.522 22.9032 172.931 23.1196C173.339 23.3359 173.712 23.5764 174.048 23.8408C174.385 24.0812 174.613 24.3096 174.734 24.5259C174.301 24.9346 173.868 25.4635 173.435 26.1126C173.003 26.7617 172.57 27.5069 172.137 28.3483C171.729 29.1897 171.32 30.1033 170.911 31.0889C170.502 32.0746 170.118 33.0963 169.757 34.154C168.748 37.2793 168.074 39.4789 167.738 40.7531C167.401 42.0272 167.113 43.2412 166.872 44.3952C166.656 45.5491 166.476 46.6069 166.331 47.5685C166.211 48.5301 166.151 49.3354 166.151 49.9845C166.151 50.2249 166.151 50.4172 166.151 50.5615C166.175 50.7057 166.199 50.8259 166.223 50.9221C165.694 50.898 165.31 50.8019 165.069 50.6336C164.829 50.4894 164.649 50.3211 164.528 50.1288C164.408 49.9605 164.3 49.7802 164.204 49.5879C164.108 49.4196 163.951 49.2874 163.735 49.1912C163.567 49.1191 163.411 48.9508 163.266 48.6863C163.122 48.4219 163.002 48.1214 162.906 47.7848C162.81 47.4483 162.737 47.1117 162.689 46.7752C162.641 46.4386 162.617 46.1621 162.617 45.9458C162.617 44.9361 162.786 43.6379 163.122 42.0513C163.459 40.4646 164.06 38.325 164.925 35.6325C165.791 32.94 166.464 30.9928 166.944 29.7907C167.329 28.8051 167.714 27.8795 168.098 27.0141C167.57 27.3507 166.944 27.8555 166.223 28.5286C165.262 29.4422 164.24 30.56 163.158 31.8822C162.1 33.2045 160.995 34.6709 159.841 36.2816C158.711 37.8923 157.653 39.5511 156.667 41.2579C155.682 42.9407 154.78 44.6356 153.963 46.3424C153.169 48.0252 152.556 49.5758 152.124 50.9942C152.076 51.0182 152.028 51.0303 151.979 51.0303C151.931 51.0303 151.847 51.0182 151.727 50.9942C151.439 50.9942 151.126 50.9221 150.789 50.7778C150.164 50.5374 149.624 50.2129 149.167 49.8042C148.566 49.2753 148.013 48.6022 147.508 47.7848C147.7 47.4002 147.917 46.9074 148.157 46.3064C148.422 45.7054 148.722 44.9842 149.059 44.1427C149.419 43.2773 149.816 42.2796 150.249 41.1497C150.705 39.9958 151.222 38.6616 151.799 37.147L153.061 33.9377C153.566 32.6395 153.975 31.5457 154.287 30.6562C154.624 29.7667 154.9 28.9013 155.117 28.0599C155.357 27.1944 155.573 26.2448 155.766 25.2111C155.982 24.1774 156.235 22.8672 156.523 21.2805C157.533 21.4728 158.446 21.9176 159.264 22.6147C160.105 23.3119 160.826 24.1533 161.427 25.139C161.211 25.4274 160.946 25.8602 160.634 26.4371C160.321 27.0141 159.973 27.7113 159.588 28.5286C159.228 29.322 158.831 30.2235 158.398 31.2332C157.965 32.2188 157.112 34.1781 155.838 37.111C155.477 37.9284 155.153 38.6976 154.864 39.4188C159.071 34.5146 161.68 31.4495 162.689 30.2235C163.723 28.9493 164.721 27.7954 165.682 26.7617C166.644 25.7039 167.521 24.7904 168.315 24.0211C169.132 23.2278 169.805 22.747 170.334 22.5787Z" fill="white"/>
<path d="M186.59 38.5895C186.951 37.8923 187.227 37.3514 187.42 36.9667C188.742 34.0819 189.752 32.6395 190.449 32.6395C190.93 32.6395 191.374 32.7717 191.783 33.0362C192.216 33.2766 192.516 33.6372 192.685 34.118C192.468 34.8392 192.108 35.7046 191.603 36.7143C191.122 37.724 190.629 38.7938 190.124 39.9237C189.619 41.0295 189.163 42.1234 188.754 43.2052C188.369 44.287 188.177 45.2606 188.177 46.1261C188.177 46.6309 188.249 46.9675 188.393 47.1358C188.538 47.28 188.742 47.3521 189.006 47.3521C189.295 47.3521 189.559 47.304 189.8 47.2079C190.064 47.0877 190.256 47.0276 190.377 47.0276C190.521 47.1237 190.605 47.2439 190.629 47.3882C190.653 47.5324 190.665 47.6646 190.665 47.7848C190.184 48.1695 189.692 48.482 189.187 48.7224C188.682 48.9869 188.117 49.1191 187.492 49.1191C186.915 49.1191 186.434 49.0229 186.049 48.8306C185.689 48.6383 185.388 48.3738 185.148 48.0373C184.908 47.7007 184.739 47.3161 184.643 46.8833C184.547 46.4506 184.499 45.9818 184.499 45.477C184.499 44.6596 184.607 43.8422 184.823 43.0249C184.871 42.8326 184.932 42.6402 185.004 42.4479C184.162 43.097 183.165 43.5658 182.011 43.8543C181.53 43.8062 181.025 43.686 180.496 43.4937C179.967 43.2773 179.474 42.9528 179.018 42.52C178.561 42.1354 178.14 41.6305 177.756 41.0055C177.299 41.9431 176.854 42.9287 176.421 43.9624C175.628 46.679 175.027 48.2897 174.618 48.7945C174.234 49.3234 173.897 49.672 173.609 49.8403C173.104 49.5518 172.731 49.1431 172.491 48.6142C172.25 48.1094 172.07 47.5805 171.95 47.0276C171.95 46.5708 172.01 45.9938 172.13 45.2967C172.274 44.5995 172.455 43.8302 172.671 42.9888C172.911 42.1234 173.2 41.2219 173.536 40.2843C173.873 39.3467 174.246 38.4092 174.654 37.4716C175.568 35.3561 176.397 33.6973 177.143 32.4953C177.912 31.2933 178.393 30.6442 178.585 30.548C179.21 30.7403 179.799 31.1731 180.352 31.8462C180.905 32.4953 181.313 33.2165 181.578 34.0098C181.313 34.6589 180.628 35.909 179.522 37.7601C179.522 37.7841 179.51 37.8082 179.486 37.8322C179.823 39.2025 180.292 40.1761 180.893 40.7531C181.518 41.3781 182.203 41.7387 182.948 41.8349C183.862 41.6185 184.607 41.1978 185.184 40.5728C185.785 39.9237 186.254 39.2626 186.59 38.5895Z" fill="white"/>
<path d="M215.067 36.9667C214.683 36.9908 214.214 37.2432 213.661 37.724C213.108 38.1808 212.507 38.7818 211.858 39.527C211.233 40.2482 210.572 41.0536 209.875 41.9431C209.201 42.8326 208.54 43.722 207.891 44.6115C207.266 45.477 206.677 46.2943 206.124 47.0636C205.571 47.8329 205.103 48.4459 204.718 48.9027C204.189 48.6863 203.732 48.3738 203.348 47.9651C202.963 47.5324 202.687 47.0035 202.518 46.3785C202.638 45.6332 202.807 44.864 203.023 44.0706C203.239 43.2533 203.516 42.4119 203.852 41.5464C204.213 40.681 204.646 39.7795 205.151 38.8419C205.68 37.8803 206.317 36.8706 207.062 35.8128C206.701 35.8369 206.208 36.1013 205.583 36.6061C204.958 37.0869 204.285 37.724 203.564 38.5173C202.843 39.2866 202.098 40.1641 201.328 41.1497C200.559 42.1114 199.838 43.0609 199.165 43.9985C198.275 45.2486 197.53 46.3424 196.929 47.28C196.352 48.2176 195.931 48.7705 195.667 48.9388C195.042 48.482 194.609 47.9892 194.369 47.4603C194.128 46.9314 193.948 46.3424 193.828 45.6933C193.852 45.1164 193.936 44.3952 194.08 43.5297C194.248 42.6643 194.477 41.7748 194.765 40.8613C195.318 39.1063 196.027 37.3634 196.893 35.6325C197.782 33.9016 198.636 32.315 199.453 30.8726C200.126 31.0168 200.727 31.2452 201.256 31.5577C201.809 31.8702 202.386 32.327 202.987 32.928C202.747 33.6732 202.374 34.4666 201.869 35.308C201.364 36.1253 200.835 36.9908 200.283 37.9043C199.73 38.8178 199.225 39.7554 198.768 40.717C198.311 41.6786 198.011 42.6523 197.866 43.6379C198.54 42.6763 199.333 41.5704 200.246 40.3204C201.184 39.0703 202.134 37.8923 203.095 36.7864C204.081 35.6806 205.055 34.743 206.016 33.9737C206.978 33.2045 207.843 32.8198 208.612 32.8198C208.901 32.8198 209.213 32.8679 209.55 32.9641C209.887 33.0602 210.199 33.1804 210.488 33.3247C210.776 33.4689 211.016 33.6131 211.209 33.7574C211.401 33.8776 211.509 33.9737 211.533 34.0459C211.413 34.5267 211.125 35.1878 210.668 36.0292C210.235 36.8465 209.766 37.712 209.262 38.6255C208.757 39.5391 208.288 40.4285 207.855 41.294C207.422 42.1354 207.17 42.8085 207.098 43.3134C208.276 41.7027 209.382 40.2482 210.415 38.9501C211.449 37.6279 212.423 36.498 213.336 35.5604C214.25 34.6228 215.091 33.9016 215.861 33.3968C216.654 32.8919 217.399 32.6395 218.096 32.6395C218.577 32.6395 219.022 32.7717 219.431 33.0362C219.863 33.2766 220.164 33.6372 220.332 34.118C220.116 34.8392 219.755 35.7046 219.25 36.7143C218.769 37.724 218.277 38.7938 217.772 39.9237C217.267 41.0295 216.81 42.1234 216.401 43.2052C216.017 44.287 215.825 45.2606 215.825 46.1261C215.825 46.6309 215.897 46.9675 216.041 47.1358C216.185 47.28 216.389 47.3521 216.654 47.3521C216.942 47.3521 217.207 47.304 217.447 47.2079C217.712 47.0877 217.904 47.0276 218.024 47.0276C218.168 47.1237 218.253 47.2439 218.277 47.3882C218.301 47.5324 218.313 47.6646 218.313 47.7848C217.832 48.1695 217.339 48.482 216.834 48.7224C216.329 48.9869 215.764 49.1191 215.139 49.1191C214.562 49.1191 214.082 49.0229 213.697 48.8306C213.336 48.6383 213.036 48.3738 212.795 48.0373C212.555 47.7007 212.387 47.3161 212.291 46.8833C212.194 46.4506 212.146 45.9818 212.146 45.477C212.146 44.6596 212.255 43.8543 212.471 43.0609C212.687 42.2436 212.94 41.4743 213.228 40.7531C213.541 40.0078 213.865 39.3227 214.202 38.6976C214.538 38.0486 214.827 37.4716 215.067 36.9667Z" fill="white"/>
<path d="M234.707 33.1083C234.611 34.5988 234.347 35.8849 233.914 36.9667C233.481 38.0245 232.856 38.9621 232.039 39.7795C231.246 40.5728 230.272 41.294 229.118 41.9431C227.964 42.5922 226.618 43.2172 225.079 43.8182C225.079 43.9624 225.067 44.1187 225.043 44.287C225.043 44.4312 225.043 44.5875 225.043 44.7558C225.043 45.0683 225.067 45.3928 225.115 45.7294C225.163 46.066 225.248 46.3785 225.368 46.667C225.488 46.9555 225.656 47.1959 225.873 47.3882C226.089 47.5565 226.366 47.6406 226.702 47.6406C227.351 47.6406 227.988 47.4964 228.613 47.2079C229.238 46.9194 229.827 46.5708 230.38 46.1621C230.957 45.7294 231.486 45.2726 231.967 44.7918C232.472 44.287 232.916 43.8302 233.301 43.4215C233.542 43.6379 233.746 43.8422 233.914 44.0346C232.832 45.477 231.642 46.679 230.344 47.6406C229.07 48.5782 227.856 49.1792 226.702 49.4436C225.043 49.2513 223.745 48.6503 222.808 47.6406C221.894 46.6069 221.437 45.3688 221.437 43.9264C221.437 42.9407 221.569 41.9431 221.834 40.9334C222.122 39.8997 222.507 38.914 222.988 37.9764C223.493 37.0148 224.07 36.1133 224.719 35.2719C225.392 34.4305 226.101 33.6973 226.846 33.0722C227.616 32.4472 228.397 31.9544 229.19 31.5938C230.008 31.2332 230.813 31.0529 231.606 31.0529C232.712 31.1971 233.746 31.8822 234.707 33.1083ZM232.219 34.2983C231.57 34.3944 230.897 34.6589 230.2 35.0916C229.503 35.5243 228.842 36.1013 228.217 36.8225C227.616 37.5437 227.063 38.3851 226.558 39.3467C226.053 40.3083 225.656 41.3421 225.368 42.4479C227.291 41.4863 228.89 40.3083 230.164 38.914C231.438 37.4956 232.123 35.9571 232.219 34.2983Z" fill="white"/>
<path d="M233.745 59.9732C233.408 59.8771 233.216 59.5165 233.168 58.8914C233.071 58.5789 232.999 58.2063 232.951 57.7735C232.927 57.3408 232.915 56.848 232.915 56.2951C232.915 55.7902 232.999 55.0931 233.168 54.2036C233.336 53.3381 233.564 52.3525 233.853 51.2466C234.165 50.1408 234.538 48.9508 234.971 47.6767C235.403 46.3785 235.884 45.0683 236.413 43.7461C237.062 42.0873 237.627 40.6569 238.108 39.4549C238.589 38.2289 238.985 37.1711 239.298 36.2816C239.634 35.3921 239.899 34.6589 240.091 34.0819C240.307 33.505 240.476 33.0121 240.596 32.6034C240.692 32.315 240.836 31.9664 241.029 31.5577C241.221 31.149 241.437 30.7403 241.678 30.3317C241.942 29.8989 242.207 29.5023 242.471 29.1417C242.736 28.757 242.976 28.4685 243.192 28.2762C244.034 28.3964 244.827 28.6128 245.572 28.9253C246.318 29.2378 246.774 29.5383 246.943 29.8268C246.606 30.1393 246.221 30.6322 245.789 31.3053C245.356 31.9544 244.935 32.6756 244.527 33.4689C244.118 34.2382 243.745 35.0315 243.409 35.8489C243.072 36.6662 242.82 37.3875 242.651 38.0125C242.892 37.6038 243.204 37.1591 243.589 36.6783C243.974 36.1975 244.563 35.5364 245.356 34.6949C246.245 33.7814 247.075 33.0843 247.844 32.6034C248.637 32.0986 249.323 31.8462 249.9 31.8462C250.813 31.8462 251.558 32.0986 252.135 32.6034C252.736 33.1083 253.037 33.7574 253.037 34.5507C253.037 36.2816 252.748 38.0005 252.171 39.7073C251.594 41.3901 250.765 42.9167 249.683 44.287C249.274 44.8159 248.794 45.3207 248.241 45.8015C247.688 46.2823 247.111 46.7151 246.51 47.0997C245.909 47.4603 245.32 47.7488 244.743 47.9651C244.166 48.1815 243.649 48.2897 243.192 48.2897C242.76 48.2897 242.375 48.2055 242.038 48.0373C241.726 47.8449 241.51 47.6166 241.389 47.3521C242.327 46.7992 243.24 46.0299 244.13 45.0443C245.019 44.0586 245.837 42.9287 246.582 41.6546C247.351 40.3564 248.012 38.9621 248.565 37.4716C249.142 35.9811 249.575 34.4666 249.863 32.928C248.95 33.4088 248.121 33.9377 247.375 34.5146C246.654 35.0676 245.933 35.8008 245.212 36.7143C244.346 37.7721 243.661 38.6255 243.156 39.2746C242.651 39.9237 242.231 40.4766 241.894 40.9334C241.582 41.3901 241.317 41.8229 241.101 42.2316C240.909 42.6162 240.692 43.097 240.452 43.674C240.115 44.4433 239.719 45.465 239.262 46.7391C238.829 47.9892 238.372 49.3955 237.891 50.9581C237.435 52.5208 236.966 54.1795 236.485 55.9345C236.028 57.7134 235.584 59.4804 235.151 61.2353C234.886 61.1873 234.658 60.9949 234.466 60.6584C234.273 60.442 234.129 60.2858 234.033 60.1896C233.961 60.0934 233.865 60.0213 233.745 59.9732Z" fill="white"/>
<path d="M263.712 39.2025C264.818 37.3274 265.443 36.1975 265.587 35.8128C265.756 35.4041 265.948 34.9834 266.164 34.5507C266.405 34.118 266.669 33.6853 266.958 33.2525C267.27 32.7958 267.631 32.3751 268.04 31.9904C268.352 31.9904 268.689 32.0265 269.049 32.0986C269.41 32.1707 269.746 32.2669 270.059 32.3871C270.396 32.4832 270.684 32.6035 270.924 32.7477C271.165 32.8679 271.345 33.0001 271.465 33.1444C271.033 34.2021 270.552 35.2479 270.023 36.2816C269.494 37.3153 269.001 38.325 268.544 39.3107C268.496 39.4309 268.424 39.5511 268.328 39.6713C268.232 39.9117 268.136 40.1521 268.04 40.3925C267.919 40.6569 267.775 41.0416 267.607 41.5464C267.439 42.0513 267.27 42.5801 267.102 43.1331C266.934 43.686 266.789 44.2269 266.669 44.7558C266.573 45.2847 266.525 45.7054 266.525 46.0179C266.525 46.2102 266.549 46.3545 266.597 46.4506C266.669 46.5468 266.729 46.6189 266.777 46.667C267.138 46.5227 267.595 46.1261 268.148 45.477C268.701 44.8279 269.47 43.8302 270.456 42.484C270.696 42.1474 270.972 41.7628 271.285 41.33C271.622 40.8973 271.958 40.4406 272.295 39.9598C272.631 39.4549 272.944 38.938 273.232 38.4092C273.545 37.8803 273.797 37.3514 273.99 36.8225C274.086 36.534 274.206 36.1975 274.35 35.8128C274.518 35.4041 274.711 34.9834 274.927 34.5507C275.167 34.118 275.432 33.6853 275.72 33.2525C276.033 32.7958 276.394 32.3751 276.802 31.9904C277.115 31.9904 277.451 32.0265 277.812 32.0986C278.173 32.1707 278.509 32.2669 278.822 32.3871C279.158 32.4832 279.447 32.6035 279.687 32.7477C279.927 32.8679 280.108 33.0001 280.228 33.1444C279.795 34.2021 279.314 35.2479 278.786 36.2816C278.257 37.3153 277.764 38.337 277.307 39.3467C276.85 40.3324 276.466 41.318 276.153 42.3037C275.841 43.2893 275.684 44.2509 275.684 45.1885C275.684 45.6933 275.72 46.1381 275.793 46.5227C275.889 46.8833 275.985 47.1959 276.081 47.4603C276.177 47.7007 276.261 47.905 276.333 48.0733C276.43 48.2416 276.478 48.3858 276.478 48.506C276.478 48.5301 276.454 48.5661 276.406 48.6142C276.382 48.6383 276.357 48.6503 276.333 48.6503C276.165 48.6503 275.949 48.6142 275.684 48.5421C275.42 48.47 275.119 48.3618 274.783 48.2176C274.47 48.0974 274.146 47.9531 273.809 47.7848C273.497 47.6166 273.196 47.4363 272.908 47.2439C272.451 46.8593 272.138 46.3785 271.97 45.8015C271.826 45.2246 271.754 44.7317 271.754 44.3231C271.754 43.8182 271.814 43.3855 271.934 43.0249C271.838 43.0249 271.622 43.2172 271.285 43.6018C270.948 43.9865 270.576 44.4433 270.167 44.9721C269.782 45.501 269.398 46.0179 269.013 46.5227C268.629 47.0276 268.34 47.4002 268.148 47.6406C267.835 47.9772 267.535 48.2416 267.246 48.4339C266.982 48.6262 266.765 48.7344 266.597 48.7585C266.213 48.7344 265.804 48.6503 265.371 48.506C264.962 48.3858 264.566 48.2055 264.181 47.9651C263.821 47.7247 263.496 47.4363 263.207 47.0997C262.943 46.7631 262.763 46.3785 262.667 45.9458C262.667 45.2726 262.691 44.7197 262.739 44.287C262.763 43.9504 262.811 43.5898 262.883 43.2052C262.787 43.3013 262.667 43.4336 262.522 43.6018C262.186 43.9865 261.813 44.4433 261.404 44.9721C261.02 45.501 260.635 46.0179 260.251 46.5227C259.866 47.0276 259.577 47.4002 259.385 47.6406C259.073 47.9772 258.772 48.2416 258.484 48.4339C258.219 48.6262 258.003 48.7344 257.835 48.7585C257.45 48.7344 257.041 48.6503 256.608 48.506C256.2 48.3858 255.803 48.2055 255.418 47.9651C255.058 47.7247 254.733 47.4363 254.445 47.0997C254.18 46.7631 254 46.3785 253.904 45.9458C253.904 45.2726 253.916 44.7197 253.94 44.287C253.988 43.8543 254.072 43.3855 254.192 42.8806C254.409 41.9671 254.805 41.0175 255.382 40.0319C255.959 39.0462 256.632 38.2769 257.402 37.724C257.618 37.724 257.871 37.7481 258.159 37.7961C258.448 37.8202 258.736 37.8803 259.024 37.9764C259.337 38.0726 259.625 38.1928 259.89 38.337C260.178 38.4572 260.419 38.6255 260.611 38.8419C260.395 39.0823 259.866 40.2603 259.024 42.3758C258.183 44.4913 257.762 45.7054 257.762 46.0179C257.762 46.2102 257.786 46.3545 257.835 46.4506C257.907 46.5468 257.967 46.6189 258.015 46.667C258.375 46.5227 258.832 46.1261 259.385 45.477C259.938 44.8279 260.707 43.8302 261.693 42.484C261.933 42.1474 262.606 41.0536 263.712 39.2025Z" fill="white"/>
<path d="M293.904 33.1083C293.808 34.5988 293.544 35.8849 293.111 36.9667C292.678 38.0245 292.053 38.9621 291.236 39.7795C290.442 40.5728 289.469 41.294 288.315 41.9431C287.161 42.5922 285.815 43.2172 284.276 43.8182C284.276 43.9624 284.264 44.1187 284.24 44.287C284.24 44.4312 284.24 44.5875 284.24 44.7558C284.24 45.0683 284.264 45.3928 284.312 45.7294C284.36 46.066 284.444 46.3785 284.564 46.667C284.685 46.9555 284.853 47.1959 285.069 47.3882C285.286 47.5565 285.562 47.6406 285.899 47.6406C286.548 47.6406 287.185 47.4964 287.81 47.2079C288.435 46.9194 289.024 46.5708 289.577 46.1621C290.154 45.7294 290.683 45.2726 291.164 44.7918C291.668 44.287 292.113 43.8302 292.498 43.4215C292.738 43.6379 292.943 43.8422 293.111 44.0346C292.029 45.477 290.839 46.679 289.541 47.6406C288.267 48.5782 287.053 49.1792 285.899 49.4436C284.24 49.2513 282.942 48.6503 282.004 47.6406C281.091 46.6069 280.634 45.3688 280.634 43.9264C280.634 42.9407 280.766 41.9431 281.031 40.9334C281.319 39.8997 281.704 38.914 282.185 37.9764C282.689 37.0148 283.266 36.1133 283.915 35.2719C284.589 34.4305 285.298 33.6973 286.043 33.0722C286.812 32.4472 287.594 31.9544 288.387 31.5938C289.204 31.2332 290.01 31.0529 290.803 31.0529C291.909 31.1971 292.943 31.8822 293.904 33.1083ZM291.416 34.2983C290.767 34.3944 290.094 34.6589 289.397 35.0916C288.699 35.5243 288.038 36.1013 287.413 36.8225C286.812 37.5437 286.259 38.3851 285.754 39.3467C285.25 40.3083 284.853 41.3421 284.564 42.4479C286.488 41.4863 288.086 40.3083 289.361 38.914C290.635 37.4956 291.32 35.9571 291.416 34.2983Z" fill="white"/>
<path d="M288.289 58.7832C288.289 58.639 288.337 58.5068 288.434 58.3866C288.53 58.2664 288.638 58.1462 288.758 58.026C289.047 58.2904 289.299 58.4948 289.515 58.639C289.708 58.7832 289.9 58.9034 290.092 58.9996C290.261 59.0958 290.441 59.1559 290.633 59.1799C290.826 59.2039 291.054 59.216 291.318 59.216C292.569 59.216 293.759 58.8794 294.888 58.2063C296.018 57.5572 297.076 56.6076 298.062 55.3575C299.071 54.1074 299.985 52.5809 300.802 50.7778C301.62 48.9748 302.341 46.9314 302.966 44.6476C302.677 44.9361 302.317 45.2606 301.884 45.6212C301.475 45.9578 301.043 46.2823 300.586 46.5949C300.129 46.9074 299.672 47.1959 299.216 47.4603C298.783 47.7247 298.41 47.9171 298.098 48.0373C297.689 47.9651 297.304 47.7969 296.944 47.5324C296.607 47.2439 296.307 46.8954 296.042 46.4867C295.778 46.078 295.574 45.6212 295.429 45.1164C295.285 44.5875 295.213 44.0346 295.213 43.4576C295.213 42.52 295.381 41.5584 295.718 40.5728C296.078 39.5871 296.547 38.6255 297.124 37.688C297.701 36.7263 298.374 35.8248 299.144 34.9834C299.937 34.142 300.766 33.4088 301.632 32.7838C302.521 32.1587 303.411 31.6659 304.3 31.3053C305.214 30.9206 306.103 30.7283 306.969 30.7283C307.81 30.7283 308.435 30.9086 308.844 31.2692C309.277 31.6058 309.589 32.1948 309.781 33.0362C309.517 32.8919 309.18 32.8198 308.772 32.8198C308.195 32.8198 307.522 33.0482 306.752 33.505C306.007 33.9617 305.238 34.5627 304.444 35.308C303.675 36.0292 302.906 36.8706 302.137 37.8322C301.367 38.7698 300.682 39.7314 300.081 40.717C299.504 41.7027 299.023 42.6643 298.639 43.6018C298.278 44.5394 298.098 45.3808 298.098 46.1261C298.098 46.2943 298.11 46.4025 298.134 46.4506C298.158 46.4746 298.194 46.4867 298.242 46.4867C298.458 46.4867 298.747 46.3665 299.108 46.1261C299.492 45.8857 299.913 45.5852 300.37 45.2246C300.85 44.8399 301.343 44.4072 301.848 43.9264C302.353 43.4215 302.834 42.9167 303.29 42.4119C304.324 41.2579 305.262 39.9718 306.103 38.5534C306.969 37.111 307.654 35.7167 308.159 34.3704C308.808 34.4185 309.385 34.5267 309.89 34.6949C310.394 34.8632 310.743 35.0435 310.935 35.2359C310.118 37.111 309.457 38.6856 308.952 39.9598C308.471 41.2339 308.05 42.3638 307.69 43.3494C307.041 45.0803 306.428 46.6549 305.851 48.0733C305.298 49.5157 304.721 50.8379 304.12 52.04C303.543 53.266 302.906 54.3959 302.209 55.4296C301.536 56.4874 300.766 57.4971 299.901 58.4587C299.492 58.9155 299.023 59.3121 298.494 59.6487C297.99 60.0093 297.461 60.3098 296.908 60.5502C296.379 60.7906 295.85 60.9709 295.321 61.0911C294.816 61.2113 294.348 61.2714 293.915 61.2714C293.338 61.2714 292.749 61.1993 292.148 61.055C291.547 60.9348 290.994 60.7545 290.489 60.5141C289.96 60.2978 289.503 60.0333 289.119 59.7208C288.734 59.4323 288.458 59.1198 288.289 58.7832Z" fill="white"/>
<path d="M321.616 47.2439C321.159 46.8593 320.847 46.3785 320.679 45.8015C320.534 45.2246 320.462 44.7317 320.462 44.3231C320.462 43.8182 320.522 43.3855 320.643 43.0249C320.546 43.0249 320.33 43.2172 319.993 43.6018C319.657 43.9865 319.284 44.4433 318.876 44.9721C318.491 45.501 318.106 46.0179 317.722 46.5227C317.337 47.0276 317.049 47.4002 316.856 47.6406C316.544 47.9772 316.243 48.2416 315.955 48.4339C315.69 48.6262 315.474 48.7344 315.306 48.7585C314.921 48.7344 314.512 48.6503 314.08 48.506C313.671 48.3858 313.274 48.2055 312.89 47.9651C312.529 47.7247 312.204 47.4363 311.916 47.0997C311.652 46.7631 311.471 46.3785 311.375 45.9458C311.375 45.2726 311.387 44.7197 311.411 44.287C311.459 43.8543 311.543 43.3855 311.664 42.8806C311.88 41.9671 312.192 40.9334 312.601 39.7795C313.034 38.6255 313.527 37.4956 314.08 36.3898C314.632 35.2599 315.246 34.2141 315.919 33.2525C316.616 32.2669 317.349 31.4976 318.118 30.9447C318.335 30.9447 318.587 30.9687 318.876 31.0168C319.164 31.0408 319.453 31.1009 319.741 31.1971C320.054 31.2933 320.342 31.4135 320.606 31.5577C320.895 31.6779 321.135 31.8462 321.328 32.0625C321.111 32.3029 320.558 33.1083 319.669 34.4786C318.803 35.8489 317.83 37.8202 316.748 40.3925C316.628 40.6569 316.484 41.0416 316.315 41.5464C316.147 42.0513 315.979 42.5801 315.81 43.1331C315.642 43.686 315.498 44.2269 315.378 44.7558C315.282 45.2847 315.234 45.7054 315.234 46.0179C315.234 46.2102 315.258 46.3545 315.306 46.4506C315.378 46.5468 315.438 46.6189 315.486 46.667C315.847 46.5227 316.303 46.1261 316.856 45.477C317.409 44.8279 318.178 43.8302 319.164 42.484C319.404 42.1474 319.681 41.7628 319.993 41.33C320.33 40.8973 320.667 40.4406 321.003 39.9598C321.34 39.4549 321.652 38.938 321.941 38.4092C322.253 37.8803 322.506 37.3514 322.698 36.8225C322.794 36.534 322.914 36.1975 323.059 35.8128C323.227 35.4041 323.419 34.9834 323.636 34.5507C323.876 34.118 324.14 33.6853 324.429 33.2525C324.741 32.7958 325.102 32.3751 325.511 31.9904C325.823 31.9904 326.16 32.0265 326.52 32.0986C326.881 32.1707 327.218 32.2669 327.53 32.3871C327.867 32.4832 328.155 32.6035 328.396 32.7477C328.636 32.8679 328.816 33.0001 328.936 33.1444C328.504 34.2021 328.023 35.2479 327.494 36.2816C326.965 37.3153 326.472 38.337 326.016 39.3467C325.559 40.3324 325.174 41.318 324.862 42.3037C324.549 43.2893 324.393 44.2509 324.393 45.1885C324.393 45.6933 324.429 46.1381 324.501 46.5227C324.597 46.8833 324.693 47.1959 324.789 47.4603C324.886 47.7007 324.97 47.905 325.042 48.0733C325.138 48.2416 325.186 48.3858 325.186 48.506C325.186 48.5301 325.162 48.5661 325.114 48.6142C325.09 48.6383 325.066 48.6503 325.042 48.6503C324.874 48.6503 324.657 48.6142 324.393 48.5421C324.128 48.47 323.828 48.3618 323.491 48.2176C323.179 48.0974 322.854 47.9531 322.518 47.7848C322.205 47.6166 321.905 47.4363 321.616 47.2439Z" fill="white"/>
<path d="M336.55 41.0776C336.526 41.1017 336.502 41.1137 336.478 41.1137C335.973 41.3541 335.528 41.4983 335.144 41.5464C334.206 41.4262 333.509 41.1377 333.052 40.681C332.596 40.2242 332.367 39.6352 332.367 38.914C332.367 38.2168 332.56 37.4596 332.944 36.6422C333.329 35.8008 333.822 35.0195 334.423 34.2983C335.048 33.5771 335.757 32.9761 336.55 32.4953C337.344 31.9904 338.137 31.738 338.93 31.738C339.796 31.738 340.445 32.0024 340.877 32.5313C340.95 32.6275 341.022 32.7357 341.094 32.8559C341.334 32.5433 341.599 32.2549 341.887 31.9904C342.2 31.9904 342.536 32.0265 342.897 32.0986C343.257 32.1707 343.594 32.2669 343.907 32.3871C344.243 32.4832 344.532 32.6035 344.772 32.7477C345.012 32.8679 345.193 33.0001 345.313 33.1444C344.88 34.2021 344.399 35.2479 343.87 36.2816C343.342 37.3153 342.849 38.337 342.392 39.3467C341.935 40.3324 341.551 41.318 341.238 42.3037C340.926 43.2893 340.769 44.2509 340.769 45.1885C340.769 45.6933 340.805 46.1381 340.877 46.5227C340.974 46.8833 341.07 47.1959 341.166 47.4603C341.262 47.7007 341.346 47.905 341.418 48.0733C341.514 48.2416 341.563 48.3858 341.563 48.506C341.563 48.5301 341.539 48.5661 341.49 48.6142C341.466 48.6383 341.442 48.6503 341.418 48.6503C341.25 48.6503 341.034 48.6142 340.769 48.5421C340.505 48.47 340.204 48.3618 339.868 48.2176C339.555 48.0974 339.231 47.9531 338.894 47.7848C338.582 47.6166 338.281 47.4363 337.993 47.2439C337.536 46.8593 337.223 46.3785 337.055 45.8015C336.911 45.2246 336.839 44.7317 336.839 44.3231C336.839 43.8182 336.899 43.3855 337.019 43.0249C336.923 43.0249 336.706 43.2172 336.37 43.6018C336.033 43.9865 335.661 44.4433 335.252 44.9721C334.867 45.501 334.483 46.0179 334.098 46.5227C333.713 47.0276 333.425 47.4002 333.233 47.6406C332.92 47.9772 332.62 48.2416 332.331 48.4339C332.067 48.6262 331.85 48.7344 331.682 48.7585C331.297 48.7344 330.889 48.6503 330.456 48.506C330.047 48.3858 329.651 48.2055 329.266 47.9651C328.905 47.7247 328.581 47.4363 328.292 47.0997C328.028 46.7631 327.848 46.3785 327.751 45.9458C327.751 45.2726 327.8 44.7317 327.896 44.3231C327.992 43.9144 328.16 43.3614 328.401 42.6643C328.665 41.9671 329.182 41.3421 329.951 40.7891C330.168 40.7891 330.42 40.8132 330.708 40.8613C330.997 40.8853 331.285 40.9454 331.574 41.0416C331.886 41.1377 332.175 41.2579 332.439 41.4022C332.728 41.5224 332.968 41.6906 333.161 41.907C332.944 42.1474 332.632 42.8205 332.223 43.9264C331.814 45.0082 331.61 45.7054 331.61 46.0179C331.61 46.2102 331.634 46.3545 331.682 46.4506C331.754 46.5468 331.814 46.6189 331.862 46.667C332.223 46.5227 332.68 46.1261 333.233 45.477C333.786 44.8279 334.555 43.8302 335.54 42.484C335.781 42.1474 336.069 41.7628 336.406 41.33C336.454 41.2579 336.502 41.1738 336.55 41.0776ZM340.228 34.154C340.204 34.106 340.18 34.0579 340.156 34.0098C340.036 33.8896 339.808 33.8055 339.471 33.7574C338.942 33.8776 338.401 34.142 337.848 34.5507C337.295 34.9594 336.791 35.4402 336.334 35.9931C335.901 36.522 335.541 37.0749 335.252 37.6519C334.988 38.2048 334.855 38.6736 334.855 39.0582C334.855 39.7314 335.216 40.0679 335.937 40.0679C336.226 40.0679 336.514 40.0078 336.803 39.8876C337.091 39.7915 337.368 39.6833 337.632 39.5631C337.872 39.1784 338.113 38.7938 338.353 38.4092C338.642 37.8803 338.882 37.3514 339.074 36.8225C339.171 36.534 339.291 36.1975 339.435 35.8128C339.603 35.4041 339.808 34.9834 340.048 34.5507C340.096 34.4305 340.156 34.2983 340.228 34.154Z" fill="white"/>
<path d="M351.323 29.0335C351.179 28.9133 351.047 28.721 350.927 28.4565C350.807 28.168 350.746 27.9036 350.746 27.6632C351.948 26.6295 352.802 25.6438 353.307 24.7062C353.836 23.7687 354.1 22.747 354.1 21.6411C354.1 20.9199 354.064 20.3069 353.992 19.802C353.944 19.2732 353.836 18.6721 353.667 17.999C354.268 18.0471 354.857 18.1553 355.434 18.3236C356.035 18.4678 356.564 18.6601 357.021 18.9005C357.502 19.1169 357.898 19.3813 358.211 19.6939C358.523 19.9823 358.716 20.2708 358.788 20.5593C357.658 24.55 355.17 27.3747 351.323 29.0335ZM358.535 29.0335C358.391 28.9133 358.259 28.721 358.139 28.4565C358.019 28.168 357.958 27.9036 357.958 27.6632C359.16 26.6295 360.014 25.6438 360.519 24.7062C361.048 23.7687 361.312 22.747 361.312 21.6411C361.312 20.9199 361.276 20.3069 361.204 19.802C361.156 19.2732 361.048 18.6721 360.879 17.999C361.48 18.0471 362.069 18.1553 362.646 18.3236C363.247 18.4678 363.776 18.6601 364.233 18.9005C364.714 19.1169 365.11 19.3813 365.423 19.6939C365.736 19.9823 365.928 20.2708 366 20.5593C364.87 24.55 362.382 27.3747 358.535 29.0335Z" fill="white"/>
<path d="M71.9363 62.426C71.9363 62.426 49.847 25.8415 25.1609 9.26221C32.1876 15.4706 54.3096 34.172 70.1305 63.3644C71.0364 63.7626 71.8931 64.2642 72.6837 64.8592L71.9363 62.426Z" fill="white"/>
<path d="M0 2.92307C6.93939 4.68519 11.9148 9.41511 15.9682 15.1052C21.3092 16.5564 27.0483 17.2874 29.3342 19.9224C25.7519 18.438 21.8685 17.8248 18.0031 18.133C21.8656 24.2431 24.948 30.9807 28.3686 36.207C36.0063 39.2403 44.4732 37.8437 49.3995 42.4372C46.5899 41.0352 40.9926 42.2845 33.4585 42.2736C33.6931 42.47 33.9223 42.6664 34.1623 42.8191C45.0133 50.8987 62.4218 54.2756 62.4218 54.2756C45.3952 29.3058 23.0386 1.73923 0 2.92307Z" fill="white"/>
<path d="M59.465 37.2219C60.0671 34.8256 60.2516 32.3433 60.0106 29.8843C55.4334 16.862 49.1541 8.7988 40.4472 4.37984C42.7439 7.98593 45.0625 12.5631 45.0789 16.3819C43.835 11.5429 39.2797 6.16379 35.4609 2.32312C26.312 -0.66649 14.8664 -0.55738 0.496582 1.43933C38.0249 0.370054 65.0406 49.9005 65.0406 49.9005C64.0418 44.1639 62.6918 38.4941 60.998 32.923C60.7218 34.4292 60.2041 35.8808 59.465 37.2219Z" fill="white"/>
<path d="M21.4185 39.3765C21.4185 39.3765 10.0601 53.288 11.5113 54.1063C14.1518 55.3774 22.7878 51.815 35.881 51.815C48.9742 51.815 64.0695 58.0888 64.0695 58.0888C64.0695 58.0888 46.2355 52.8406 35.881 53.3589C23.1533 53.9972 10.8785 57.5596 5.51025 59.1035C6.78684 55.1701 21.4185 39.3765 21.4185 39.3765Z" fill="white"/>
<path d="M8.96875 57.0146L14.697 64.9087C14.697 64.9087 39.9287 55.2252 63.9329 64.9087C40.8507 53.6268 17.6157 62.181 15.4226 62.0173C13.2295 61.8537 8.96875 57.0146 8.96875 57.0146Z" fill="white"/>
<path d="M11.7839 59.4528C11.7839 59.4528 35.5153 49.0873 63.7039 60.4511C39.7924 50.0147 19.6944 55.5575 11.7839 59.4528Z" fill="white"/>
<path d="M12.5149 61.4717C12.5149 61.4717 35.2425 50.8335 63.431 62.1809C39.5196 51.7391 20.4254 57.5601 12.5149 61.4717Z" fill="white"/>
</svg>
