<svg width="366" height="65" fill="none" xmlns="http://www.w3.org/2000/svg"><path d="M97.826 22.579c.53-.169.986-.169 1.37 0 .41.144.818.324 1.227.54.408.217.781.457 1.117.722.337.24.565.469.686.685-.433.409-.866.938-1.299 1.587a23.265 23.265 0 00-1.298 2.235 50.98 50.98 0 00-1.226 2.74 50.874 50.874 0 00-1.154 3.066c-1.01 3.125-1.683 5.325-2.02 6.6a71.022 71.022 0 00-.865 3.641 88.695 88.695 0 00-.54 3.173c-.12.962-.18 1.767-.18 2.416v.578c.023.144.047.264.071.36-.529-.024-.913-.12-1.154-.288a1.574 1.574 0 01-.54-.505 4.034 4.034 0 01-.325-.541.97.97 0 00-.469-.397c-.168-.072-.324-.24-.469-.505a4.398 4.398 0 01-.36-.901 7.564 7.564 0 01-.289-1.84c0-1.009.169-2.307.505-3.894.337-1.586.938-3.726 1.803-6.419.866-2.692 1.539-4.64 2.02-5.841.384-.986.769-1.912 1.153-2.777-.528.337-1.154.841-1.875 1.515-.961.913-1.983 2.031-3.065 3.353a104.369 104.369 0 00-3.317 4.4 67.05 67.05 0 00-3.174 4.976 69.222 69.222 0 00-2.704 5.084c-.793 1.683-1.407 3.234-1.84 4.652a.32.32 0 01-.143.036c-.049 0-.133-.012-.253-.036-.288 0-.6-.072-.938-.216a5.21 5.21 0 01-1.622-.974c-.601-.529-1.154-1.202-1.659-2.02.192-.384.409-.877.65-1.478.263-.6.564-1.322.9-2.163.361-.866.758-1.863 1.19-2.993a330.06 330.06 0 001.551-4.003l1.262-3.21a106.75 106.75 0 001.226-3.28c.337-.89.613-1.756.83-2.597.24-.866.457-1.815.649-2.849a156.2 156.2 0 00.757-3.93 5.856 5.856 0 012.74 1.334 10.018 10.018 0 012.164 2.524c-.216.288-.48.721-.793 1.298a42.06 42.06 0 00-1.046 2.092c-.36.793-.757 1.695-1.19 2.704-.433.986-1.286 2.945-2.56 5.878a74.39 74.39 0 00-.974 2.308c4.207-4.904 6.816-7.97 7.825-9.195a67.86 67.86 0 012.993-3.462 61.102 61.102 0 012.633-2.74c.817-.794 1.49-1.275 2.02-1.443zm2.77 24.196c.192-.36.42-.83.685-1.406.24-.577.529-1.274.865-2.092.361-.841.758-1.803 1.19-2.885a1155.3 1155.3 0 002.813-6.923c.505-1.25.914-2.296 1.226-3.137a23.79 23.79 0 00.83-2.525c.24-.841.456-1.755.649-2.74.216-.986.468-2.248.757-3.787a6.022 6.022 0 012.74 1.299 9.918 9.918 0 012.164 2.416c-.216.288-.481.709-.793 1.262a44.79 44.79 0 00-1.046 1.983c-.361.77-.757 1.635-1.19 2.597-.433.961-.902 1.97-1.406 3.029-2.068 4.615-3.414 7.945-4.039 9.988a41.508 41.508 0 00-.83 2.813c.049 0 .085-.012.109-.036 1.154-.072 2.848-.192 5.084-.36 1.923-.12 3.27-.23 4.039-.325 0-1.01.168-2.308.505-3.895.336-1.586 1.154-4.447 2.452-8.582.433-1.25.877-2.464 1.334-3.642.481-1.202.95-2.296 1.406-3.282.457-.985.89-1.85 1.299-2.596.432-.745.817-1.298 1.154-1.659.24.024.552.12.937.289.409.144.818.324 1.226.54a7.45 7.45 0 011.118.722c.337.24.565.469.685.685-.433.409-.865.938-1.298 1.587a23.057 23.057 0 00-1.298 2.235 50.205 50.205 0 00-1.226 2.74c-.409.987-.962 2.525-1.659 4.617-.673 2.091-1.178 3.774-1.515 5.048a71.108 71.108 0 00-.865 3.642 53.179 53.179 0 00-.505 3.173 1.06 1.06 0 00-.036.253c.048.144.084.288.108.433l1.046.973c.385.385.721.782 1.01 1.19.36.553.601 1.166.721 1.84a6.36 6.36 0 01.108 2.019 7.299 7.299 0 01-.505 2.02 5.277 5.277 0 01-1.045 1.658c-.265.096-.686.12-1.263.072a15.856 15.856 0 01-1.73-.253 11.636 11.636 0 01-1.695-.468c-.529-.193-.902-.385-1.118-.577a7.6 7.6 0 01-.577-1.334 8.31 8.31 0 01-.361-1.37 6.43 6.43 0 01-.036-1.155c.048-.336.156-.565.325-.685.216-.12.445-.048.685.217.048.048.084.156.108.324.048.168.084.349.108.541l.145.577c.072.192.144.349.216.469.192.288.409.48.649.577.264.12.517.108.757-.036.794-.53 1.07-1.443.83-2.74-.145-.842-.517-1.804-1.118-2.886-2.765.193-7.465.553-14.1 1.082h-.144c-.817 0-1.479-.216-1.983-.649-.481-.433-.722-.998-.722-1.695 0-.192.024-.42.073-.685a2.55 2.55 0 01.216-.685c.409.072.805.12 1.19.144.168 0 .348.012.541.036zm51.822-28.776c.144.12.276.325.396.613.12.265.181.517.181.757-1.203 1.034-2.068 2.02-2.597 2.957a6.36 6.36 0 00-.757 3.065c0 .722.024 1.347.072 1.876.072.504.192 1.093.361 1.767a7.438 7.438 0 01-1.803-.289 12.186 12.186 0 01-1.587-.577 5.403 5.403 0 01-1.154-.793c-.313-.313-.505-.613-.577-.902 1.13-3.99 3.618-6.815 7.465-8.474zm-7.213 0c.145.12.277.325.397.613.12.265.18.517.18.757-1.202 1.034-2.067 2.02-2.596 2.957a6.36 6.36 0 00-.757 3.065c0 .722.024 1.347.072 1.876.072.504.192 1.093.361 1.767a7.438 7.438 0 01-1.803-.289 12.186 12.186 0 01-1.587-.577 5.378 5.378 0 01-1.154-.793c-.313-.313-.505-.613-.577-.902 1.13-3.99 3.618-6.815 7.464-8.474zm25.129 4.58c.529-.169.986-.169 1.37 0a9.1 9.1 0 011.227.54c.408.217.781.457 1.117.722.337.24.565.469.686.685-.433.409-.866.938-1.299 1.587a23.265 23.265 0 00-1.298 2.235 51.785 51.785 0 00-2.38 5.806c-1.009 3.125-1.683 5.325-2.019 6.6a71.156 71.156 0 00-.866 3.641 91.495 91.495 0 00-.541 3.173c-.12.962-.18 1.767-.18 2.416v.578c.024.144.048.264.072.36-.529-.024-.913-.12-1.154-.288a1.586 1.586 0 01-.541-.505 4.031 4.031 0 01-.324-.541.971.971 0 00-.469-.397c-.168-.072-.324-.24-.469-.505a4.41 4.41 0 01-.36-.901 7.583 7.583 0 01-.289-1.84c0-1.009.169-2.307.505-3.894.337-1.586.938-3.726 1.803-6.419.866-2.692 1.539-4.64 2.019-5.841.385-.986.77-1.912 1.154-2.777-.528.337-1.154.841-1.875 1.515-.961.913-1.983 2.031-3.065 3.353a104.21 104.21 0 00-3.317 4.4 67.124 67.124 0 00-3.174 4.976 69.291 69.291 0 00-2.704 5.084c-.794 1.683-1.407 3.234-1.839 4.652a.32.32 0 01-.145.036 1.52 1.52 0 01-.252-.036c-.288 0-.601-.072-.938-.216a5.21 5.21 0 01-1.622-.974c-.601-.529-1.154-1.202-1.659-2.02.192-.384.409-.877.649-1.478.265-.6.565-1.322.902-2.163.36-.866.757-1.863 1.19-2.993.456-1.154.973-2.488 1.55-4.003l1.262-3.21a106.75 106.75 0 001.226-3.28c.337-.89.613-1.756.83-2.597.24-.866.456-1.815.649-2.849.216-1.034.469-2.344.757-3.93a5.859 5.859 0 012.741 1.334 10.024 10.024 0 012.163 2.524c-.216.288-.481.721-.793 1.298a42.045 42.045 0 00-1.046 2.092c-.36.793-.757 1.695-1.19 2.704-.433.986-1.286 2.945-2.56 5.878a72.218 72.218 0 00-.974 2.308c4.207-4.904 6.816-7.97 7.825-9.195a68.313 68.313 0 012.993-3.462 60.919 60.919 0 012.633-2.74c.817-.794 1.49-1.275 2.019-1.443zM186.59 38.59c.361-.698.637-1.239.83-1.623 1.322-2.885 2.332-4.328 3.029-4.328.481 0 .925.133 1.334.397.433.24.733.601.902 1.082-.217.721-.577 1.587-1.082 2.596-.481 1.01-.974 2.08-1.479 3.21a53.131 53.131 0 00-1.37 3.281c-.385 1.082-.577 2.056-.577 2.921 0 .505.072.842.216 1.01.145.144.349.216.613.216.289 0 .553-.048.794-.144.264-.12.456-.18.577-.18a.535.535 0 01.252.36c.024.144.036.277.036.397a7.602 7.602 0 01-1.478.937 3.597 3.597 0 01-1.695.397c-.577 0-1.058-.096-1.443-.288a2.597 2.597 0 01-.901-.794 3.133 3.133 0 01-.505-1.154 6.49 6.49 0 01-.144-1.406c0-.817.108-1.635.324-2.452.048-.192.109-.385.181-.577-.842.649-1.839 1.118-2.993 1.406a6.274 6.274 0 01-1.515-.36 4.766 4.766 0 01-1.478-.974c-.457-.385-.878-.89-1.262-1.515a57.118 57.118 0 00-1.335 2.957c-.793 2.717-1.394 4.328-1.803 4.832-.384.53-.721.878-1.009 1.046a2.632 2.632 0 01-1.118-1.226 7.227 7.227 0 01-.541-1.586c0-.457.06-1.034.18-1.731.144-.697.325-1.467.541-2.308.24-.866.529-1.767.865-2.705.337-.937.71-1.875 1.118-2.812.914-2.116 1.743-3.775 2.489-4.977.769-1.202 1.25-1.85 1.442-1.947.625.192 1.214.625 1.767 1.298.553.65.961 1.37 1.226 2.164-.265.649-.95 1.899-2.056 3.75 0 .024-.012.048-.036.072.337 1.37.806 2.344 1.407 2.921.625.625 1.31.986 2.055 1.082.914-.217 1.659-.637 2.236-1.262.601-.65 1.07-1.31 1.406-1.983zm28.477-1.623c-.384.024-.853.276-1.406.757-.553.457-1.154 1.058-1.803 1.803a63.603 63.603 0 00-1.983 2.416c-.674.89-1.335 1.779-1.984 2.669-.625.865-1.214 1.682-1.767 2.452a31.314 31.314 0 01-1.406 1.839 3.863 3.863 0 01-1.37-.938c-.385-.433-.661-.962-.83-1.587.12-.745.289-1.514.505-2.307a23.78 23.78 0 01.829-2.525c.361-.865.794-1.767 1.299-2.704a32.521 32.521 0 011.911-3.03c-.361.025-.854.29-1.479.794-.625.48-1.298 1.118-2.019 1.911a38.673 38.673 0 00-2.236 2.633 68.908 68.908 0 00-2.163 2.849 83.1 83.1 0 00-2.236 3.281c-.577.938-.998 1.49-1.262 1.659-.625-.457-1.058-.95-1.298-1.479a7.565 7.565 0 01-.541-1.767c.024-.577.108-1.298.252-2.163.168-.866.397-1.755.685-2.669a35.58 35.58 0 012.128-5.228 132.74 132.74 0 012.56-4.76 5.982 5.982 0 011.803.685c.553.312 1.13.769 1.731 1.37-.24.745-.613 1.539-1.118 2.38-.505.817-1.034 1.683-1.586 2.596a31.719 31.719 0 00-1.515 2.813 10.261 10.261 0 00-.902 2.92 212.05 212.05 0 012.38-3.317 63.363 63.363 0 012.849-3.534c.986-1.105 1.96-2.043 2.921-2.812.962-.77 1.827-1.154 2.596-1.154.289 0 .601.048.938.144.337.096.649.216.938.36.288.145.528.29.721.433.192.12.3.217.324.289-.12.48-.408 1.142-.865 1.983a173.69 173.69 0 01-1.406 2.596 73.512 73.512 0 00-1.407 2.669c-.433.841-.685 1.515-.757 2.02a135.505 135.505 0 013.317-4.364c1.034-1.322 2.008-2.452 2.921-3.39.914-.937 1.755-1.658 2.525-2.163.793-.505 1.538-.758 2.235-.758.481 0 .926.133 1.335.397.432.24.733.601.901 1.082-.216.721-.577 1.587-1.082 2.596-.481 1.01-.973 2.08-1.478 3.21a53.153 53.153 0 00-1.371 3.281c-.384 1.082-.576 2.056-.576 2.921 0 .505.072.842.216 1.01.144.144.348.216.613.216.288 0 .553-.048.793-.144.265-.12.457-.18.577-.18a.536.536 0 01.253.36c.024.144.036.277.036.397a7.608 7.608 0 01-1.479.937 3.597 3.597 0 01-1.695.397c-.577 0-1.057-.096-1.442-.288a2.6 2.6 0 01-.902-.794 3.132 3.132 0 01-.504-1.154 6.426 6.426 0 01-.145-1.406c0-.817.109-1.623.325-2.416a20 20 0 01.757-2.308c.313-.745.637-1.43.974-2.055.336-.65.625-1.226.865-1.731zm19.64-3.859c-.096 1.49-.36 2.777-.793 3.859a8.496 8.496 0 01-1.875 2.813c-.793.793-1.767 1.514-2.921 2.163-1.154.65-2.5 1.274-4.039 1.875 0 .144-.012.3-.036.469v.469c0 .312.024.637.072.973.048.337.133.65.253.938.12.288.288.529.505.721.216.169.493.253.829.253.649 0 1.286-.145 1.911-.433a10.056 10.056 0 001.767-1.046c.577-.433 1.106-.89 1.587-1.37.505-.505.949-.962 1.334-1.37.241.216.445.42.613.613-1.082 1.442-2.272 2.644-3.57 3.606-1.274.937-2.488 1.538-3.642 1.803-1.659-.193-2.957-.794-3.894-1.803-.914-1.034-1.371-2.272-1.371-3.715 0-.985.132-1.983.397-2.993a15.68 15.68 0 011.154-2.957 18.504 18.504 0 011.731-2.704 15.469 15.469 0 012.127-2.2 10.884 10.884 0 012.344-1.478c.818-.36 1.623-.541 2.416-.541 1.106.144 2.14.83 3.101 2.055zm-2.488 1.19c-.649.096-1.322.36-2.019.794-.697.432-1.358 1.01-1.983 1.73a14.349 14.349 0 00-1.659 2.525 14.51 14.51 0 00-1.19 3.1c1.923-.96 3.522-2.139 4.796-3.533 1.274-1.418 1.959-2.957 2.055-4.616zm1.526 25.675c-.337-.096-.529-.456-.577-1.082a6.068 6.068 0 01-.217-1.117 26.986 26.986 0 01-.036-1.479c0-.505.084-1.202.253-2.091.168-.866.396-1.852.685-2.957a71.477 71.477 0 011.118-3.57 70.577 70.577 0 011.442-3.93 589.08 589.08 0 011.695-4.292 97.134 97.134 0 001.19-3.173c.336-.89.601-1.623.793-2.2.216-.577.385-1.07.505-1.479a9.68 9.68 0 01.433-1.045c.192-.409.408-.818.649-1.226.264-.433.529-.83.793-1.19.265-.385.505-.674.721-.866a9.65 9.65 0 012.38.65c.746.312 1.202.612 1.371.9-.337.313-.722.806-1.154 1.48-.433.648-.854 1.37-1.262 2.163-.409.77-.782 1.563-1.118 2.38a18.354 18.354 0 00-.758 2.164c.241-.41.553-.854.938-1.335.385-.48.974-1.142 1.767-1.983.889-.914 1.719-1.61 2.488-2.092.793-.504 1.479-.757 2.056-.757.913 0 1.658.253 2.235.757.601.505.902 1.154.902 1.948 0 1.73-.289 3.45-.866 5.156a15.382 15.382 0 01-2.488 4.58 10.625 10.625 0 01-1.442 1.514c-.553.481-1.13.914-1.731 1.299-.601.36-1.19.649-1.767.865-.577.216-1.094.325-1.551.325a2.55 2.55 0 01-1.154-.253c-.312-.192-.528-.42-.649-.685.938-.553 1.851-1.322 2.741-2.308a20.46 20.46 0 002.452-3.39 25.784 25.784 0 001.983-4.182 25.623 25.623 0 001.298-4.544c-.913.48-1.742 1.01-2.488 1.587-.721.553-1.442 1.286-2.163 2.2a138.358 138.358 0 00-2.056 2.56 85.485 85.485 0 00-1.262 1.658c-.312.457-.577.89-.793 1.299-.192.384-.409.865-.649 1.442a50.39 50.39 0 00-1.19 3.065c-.433 1.25-.89 2.657-1.371 4.22a315.559 315.559 0 00-1.406 4.975 571.809 571.809 0 00-1.334 5.301c-.265-.048-.493-.24-.685-.577a12.75 12.75 0 00-.433-.468.655.655 0 00-.288-.217zm29.967-20.77c1.106-1.876 1.731-3.006 1.875-3.39.169-.409.361-.83.577-1.262.241-.433.505-.866.794-1.299a7.667 7.667 0 011.082-1.262c.312 0 .649.037 1.009.109.361.072.697.168 1.01.288.337.096.625.216.865.36.241.12.421.253.541.397a40.501 40.501 0 01-1.442 3.138 86.778 86.778 0 00-1.479 3.029c-.048.12-.12.24-.216.36l-.288.721c-.121.265-.265.65-.433 1.154a63.331 63.331 0 00-.505 1.587 23.396 23.396 0 00-.433 1.623c-.096.529-.144.95-.144 1.262 0 .192.024.337.072.433.072.096.132.168.18.216.361-.144.818-.54 1.371-1.19.553-.65 1.322-1.647 2.308-2.993.24-.337.516-.721.829-1.154.337-.433.673-.89 1.01-1.37.336-.505.649-1.022.937-1.55a9.535 9.535 0 00.758-1.587c.096-.289.216-.626.36-1.01.168-.409.361-.83.577-1.262.24-.433.505-.866.793-1.299a7.764 7.764 0 011.082-1.262c.313 0 .649.037 1.01.109.361.072.697.168 1.01.288.336.096.625.216.865.36.24.12.421.253.541.397a41.264 41.264 0 01-1.442 3.138 70.95 70.95 0 00-1.479 3.065 25.058 25.058 0 00-1.154 2.957 9.534 9.534 0 00-.469 2.884c0 .505.036.95.109 1.335.096.36.192.673.288.937.096.24.18.445.252.613.097.169.145.313.145.433 0 .024-.024.06-.072.108-.024.024-.049.036-.073.036a2.59 2.59 0 01-.649-.108 7.01 7.01 0 01-.901-.324 11.1 11.1 0 01-.974-.433 11.127 11.127 0 01-.901-.541 2.907 2.907 0 01-.938-1.443c-.144-.576-.216-1.07-.216-1.478 0-.505.06-.938.18-1.298-.096 0-.312.192-.649.577-.337.385-.709.841-1.118 1.37a86.55 86.55 0 01-2.019 2.669 5.19 5.19 0 01-.902.793c-.264.192-.481.3-.649.325a4.854 4.854 0 01-1.226-.253c-.409-.12-.805-.3-1.19-.54a4.774 4.774 0 01-.974-.866 2.84 2.84 0 01-.54-1.154c0-.673.024-1.226.072-1.659a9.62 9.62 0 01.144-1.082 7.685 7.685 0 00-.361.397c-.336.385-.709.841-1.118 1.37a86.545 86.545 0 01-2.019 2.669 5.188 5.188 0 01-.901.793c-.265.192-.481.3-.649.325a4.852 4.852 0 01-1.227-.253 4.81 4.81 0 01-1.19-.54 4.743 4.743 0 01-.973-.866 2.83 2.83 0 01-.541-1.154c0-.673.012-1.226.036-1.659.048-.433.132-.901.252-1.406.217-.914.613-1.864 1.19-2.85.577-.985 1.25-1.754 2.02-2.307.216 0 .469.024.757.072.289.024.577.084.865.18.313.097.601.217.866.361.288.12.529.288.721.505-.216.24-.745 1.418-1.587 3.534-.841 2.115-1.262 3.33-1.262 3.642 0 .192.024.337.073.433.072.096.132.168.18.216.36-.144.817-.54 1.37-1.19.553-.65 1.322-1.647 2.308-2.993.24-.337.913-1.43 2.019-3.282zm30.192-6.095c-.096 1.49-.36 2.777-.793 3.859a8.496 8.496 0 01-1.875 2.813c-.794.793-1.767 1.514-2.921 2.163-1.154.65-2.5 1.274-4.039 1.875 0 .144-.012.3-.036.469v.469c0 .312.024.637.072.973.048.337.132.65.252.938.121.288.289.529.505.721.217.169.493.253.83.253.649 0 1.286-.145 1.911-.433a10.056 10.056 0 001.767-1.046c.577-.433 1.106-.89 1.587-1.37a66.63 66.63 0 001.334-1.37c.24.216.445.42.613.613-1.082 1.442-2.272 2.644-3.57 3.606-1.274.937-2.488 1.538-3.642 1.803-1.659-.193-2.957-.794-3.895-1.803-.913-1.034-1.37-2.272-1.37-3.715 0-.985.132-1.983.397-2.993a15.68 15.68 0 011.154-2.957 18.415 18.415 0 011.73-2.704 15.529 15.529 0 012.128-2.2 10.86 10.86 0 012.344-1.478c.817-.36 1.623-.541 2.416-.541 1.106.144 2.14.83 3.101 2.055zm-2.488 1.19c-.649.096-1.322.36-2.019.794-.698.432-1.359 1.01-1.984 1.73a14.349 14.349 0 00-1.659 2.525 14.617 14.617 0 00-1.19 3.1c1.924-.96 3.522-2.139 4.797-3.533 1.274-1.418 1.959-2.957 2.055-4.616zm-3.127 24.485c0-.144.048-.276.145-.396.096-.12.204-.24.324-.361.289.264.541.469.757.613.193.144.385.264.577.36.169.097.349.157.541.18.193.025.421.037.685.037 1.251 0 2.441-.337 3.57-1.01 1.13-.649 2.188-1.598 3.174-2.849 1.009-1.25 1.923-2.776 2.74-4.58.818-1.802 1.539-3.846 2.164-6.13-.289.29-.649.614-1.082.974a18.29 18.29 0 01-1.298.974c-.457.312-.914.6-1.37.865a7.199 7.199 0 01-1.118.577 2.737 2.737 0 01-1.154-.505 4.8 4.8 0 01-.902-1.045 5.106 5.106 0 01-.613-1.37 6.287 6.287 0 01-.216-1.66c0-.937.168-1.899.505-2.884.36-.986.829-1.947 1.406-2.885a16.803 16.803 0 012.02-2.705 17.498 17.498 0 012.488-2.2 13.436 13.436 0 012.668-1.478c.914-.384 1.803-.577 2.669-.577.841 0 1.466.18 1.875.541.433.337.745.926.937 1.767-.264-.144-.601-.216-1.009-.216-.577 0-1.25.228-2.02.685-.745.457-1.514 1.058-2.308 1.803a24.028 24.028 0 00-2.307 2.524c-.77.938-1.455 1.9-2.056 2.885a22.956 22.956 0 00-1.442 2.885c-.361.937-.541 1.779-.541 2.524 0 .168.012.277.036.325.024.024.06.036.108.036.216 0 .505-.12.866-.36.384-.241.805-.542 1.262-.902.48-.385.973-.818 1.478-1.299.505-.505.986-1.01 1.442-1.514a24.435 24.435 0 002.813-3.859c.866-1.442 1.551-2.836 2.056-4.183a7.16 7.16 0 011.731.325c.504.168.853.349 1.045.54a157.258 157.258 0 00-1.983 4.725 341.03 341.03 0 00-1.262 3.39 184.715 184.715 0 01-1.839 4.723 44.537 44.537 0 01-1.731 3.967 25.392 25.392 0 01-1.911 3.39 22.946 22.946 0 01-2.308 3.029 6.719 6.719 0 01-1.407 1.19 8.643 8.643 0 01-1.586.901c-.529.24-1.058.42-1.587.541-.505.12-.973.18-1.406.18a7.553 7.553 0 01-1.767-.216 7.07 7.07 0 01-1.659-.54 5.38 5.38 0 01-1.37-.794c-.385-.289-.661-.601-.83-.938zm33.327-11.539a2.906 2.906 0 01-.937-1.443c-.145-.576-.217-1.07-.217-1.478 0-.505.06-.938.181-1.298-.097 0-.313.192-.65.577a29.44 29.44 0 00-1.117 1.37 91.66 91.66 0 01-2.02 2.669 5.188 5.188 0 01-.901.793c-.265.192-.481.3-.649.325a4.837 4.837 0 01-1.226-.253 4.78 4.78 0 01-1.19-.54 4.722 4.722 0 01-.974-.866 2.842 2.842 0 01-.541-1.154c0-.673.012-1.226.036-1.659a11.5 11.5 0 01.253-1.406 30.25 30.25 0 01.937-3.102 35.295 35.295 0 011.479-3.39 23.291 23.291 0 011.839-3.137c.697-.985 1.43-1.754 2.199-2.307.217 0 .469.024.758.072.288.024.577.084.865.18.313.096.601.216.865.36.289.12.529.29.722.506-.217.24-.77 1.045-1.659 2.416-.866 1.37-1.839 3.341-2.921 5.913-.12.265-.264.65-.433 1.154a67.756 67.756 0 00-.505 1.587 23.377 23.377 0 00-.432 1.623c-.096.529-.144.95-.144 1.262 0 .192.024.337.072.433.072.096.132.168.18.216.361-.144.817-.54 1.37-1.19.553-.65 1.322-1.647 2.308-2.993.24-.337.517-.721.829-1.154.337-.433.674-.89 1.01-1.37.337-.505.649-1.022.938-1.55a9.528 9.528 0 00.757-1.587c.096-.289.216-.626.361-1.01.168-.409.36-.83.577-1.262.24-.433.504-.866.793-1.299a7.667 7.667 0 011.082-1.262c.312 0 .649.037 1.009.109.361.072.698.168 1.01.288.337.096.625.216.866.36.24.12.42.253.54.397a40.501 40.501 0 01-1.442 3.138 69.76 69.76 0 00-1.478 3.065 24.885 24.885 0 00-1.154 2.957 9.503 9.503 0 00-.469 2.884c0 .505.036.95.108 1.335.096.36.192.673.288.937.097.24.181.445.253.613.096.169.144.313.144.433 0 .024-.024.06-.072.108-.024.024-.048.036-.072.036a2.58 2.58 0 01-.649-.108 7.018 7.018 0 01-.902-.324c-.312-.12-.637-.265-.973-.433a11.147 11.147 0 01-.902-.541zm14.934-6.166c-.024.024-.048.036-.072.036-.505.24-.95.384-1.334.432-.938-.12-1.635-.408-2.092-.865-.456-.457-.685-1.046-.685-1.767 0-.697.193-1.454.577-2.272a10.42 10.42 0 011.479-2.344 8.93 8.93 0 012.127-1.803c.794-.505 1.587-.757 2.38-.757.866 0 1.515.264 1.947.793.073.096.145.205.217.325a6.79 6.79 0 01.793-.866c.313 0 .649.037 1.01.109.36.072.697.168 1.01.288.336.096.625.216.865.36.24.12.421.253.541.397a40.891 40.891 0 01-1.443 3.138 72.107 72.107 0 00-1.478 3.065 25.058 25.058 0 00-1.154 2.957 9.534 9.534 0 00-.469 2.884c0 .505.036.95.108 1.335.097.36.193.673.289.937.096.24.18.445.252.613.096.169.145.313.145.433 0 .024-.024.06-.073.108-.024.024-.048.036-.072.036a2.59 2.59 0 01-.649-.108 7.01 7.01 0 01-.901-.324 11.1 11.1 0 01-.974-.433 11.127 11.127 0 01-.901-.541 2.907 2.907 0 01-.938-1.443c-.144-.576-.216-1.07-.216-1.478 0-.505.06-.938.18-1.298-.096 0-.313.192-.649.577-.337.385-.709.841-1.118 1.37a86.55 86.55 0 01-2.019 2.669 5.19 5.19 0 01-.902.793c-.264.192-.481.3-.649.325a4.845 4.845 0 01-1.226-.253c-.409-.12-.805-.3-1.19-.54a4.748 4.748 0 01-.974-.866 2.855 2.855 0 01-.541-1.154c0-.673.049-1.214.145-1.623.096-.409.264-.962.505-1.659.264-.697.781-1.322 1.55-1.875.217 0 .469.024.757.072.289.024.577.084.866.18.312.097.601.217.865.361.289.12.529.289.722.505-.217.24-.529.914-.938 2.02-.409 1.081-.613 1.778-.613 2.09 0 .193.024.337.072.434.072.096.132.168.18.216.361-.144.818-.54 1.371-1.19.553-.65 1.322-1.647 2.307-2.993.241-.337.529-.721.866-1.154.048-.072.096-.156.144-.252zm3.678-6.924l-.072-.144c-.12-.12-.348-.204-.685-.253-.529.12-1.07.385-1.623.794a8.574 8.574 0 00-1.514 1.442 8.927 8.927 0 00-1.082 1.659c-.264.553-.397 1.022-.397 1.406 0 .673.361 1.01 1.082 1.01.289 0 .577-.06.866-.18.288-.096.565-.205.829-.325l.721-1.154c.289-.529.529-1.058.721-1.587.097-.288.217-.625.361-1.01.168-.408.373-.829.613-1.261.048-.12.108-.253.18-.397zm11.095-5.12c-.144-.12-.276-.313-.396-.578a2.087 2.087 0 01-.181-.793c1.202-1.034 2.056-2.02 2.561-2.957a6.13 6.13 0 00.793-3.065c0-.721-.036-1.334-.108-1.839a11.932 11.932 0 00-.325-1.803c.601.048 1.19.156 1.767.325a6.82 6.82 0 011.587.576c.481.217.877.481 1.19.794.312.288.505.577.577.865-1.13 3.991-3.618 6.816-7.465 8.474zm7.212 0c-.144-.12-.276-.313-.396-.578a2.087 2.087 0 01-.181-.793c1.202-1.034 2.056-2.02 2.561-2.957a6.13 6.13 0 00.793-3.065c0-.721-.036-1.334-.108-1.839a11.932 11.932 0 00-.325-1.803c.601.048 1.19.156 1.767.325a6.82 6.82 0 011.587.576c.481.217.877.481 1.19.794.313.288.505.577.577.865-1.13 3.991-3.618 6.816-7.465 8.474zM71.936 62.426S49.847 25.841 25.161 9.262c7.027 6.209 29.149 24.91 44.97 54.102.905.399 1.762.9 2.553 1.495l-.748-2.433z" fill="#fff"/><path d="M0 2.923c6.94 1.762 11.915 6.492 15.968 12.182 5.341 1.451 11.08 2.182 13.366 4.817a24.51 24.51 0 00-11.33-1.789c3.862 6.11 6.944 12.848 10.365 18.074 7.637 3.033 16.104 1.637 21.03 6.23-2.81-1.402-8.406-.152-15.94-.163.234.196.463.392.703.545 10.851 8.08 28.26 11.457 28.26 11.457C45.395 29.306 23.039 1.739 0 2.923z" fill="#fff"/><path d="M59.465 37.222c.602-2.396.787-4.879.546-7.338C55.433 16.862 49.154 8.8 40.447 4.38c2.297 3.606 4.615 8.183 4.632 12.002-1.244-4.84-5.8-10.218-9.618-14.059C26.312-.667 14.866-.557.497 1.44 38.025.37 65.04 49.901 65.04 49.901a142.241 142.241 0 00-4.043-16.978 14.22 14.22 0 01-1.533 4.299zm-38.046 2.155S10.06 53.288 11.51 54.106c2.64 1.27 11.277-2.292 24.37-2.292 13.093 0 28.189 6.274 28.189 6.274s-17.834-5.248-28.189-4.73c-12.728.638-25.002 4.2-30.37 5.744 1.276-3.933 15.908-19.727 15.908-19.727z" fill="#fff"/><path d="M8.969 57.015l5.728 7.894s25.232-9.684 49.236 0c-23.082-11.282-46.317-2.728-48.51-2.892-2.194-.163-6.454-5.002-6.454-5.002z" fill="#fff"/><path d="M11.784 59.453s23.731-10.366 51.92.998c-23.912-10.436-44.01-4.894-51.92-.998z" fill="#fff"/><path d="M12.515 61.472s22.727-10.639 50.916.709c-23.911-10.442-43.006-4.62-50.916-.71z" fill="#fff"/></svg>