<svg width="54" height="63" fill="none" xmlns="http://www.w3.org/2000/svg"><path d="M29.76 59.104h-6.825a1.73 1.73 0 00-1.207.488c-.32.313-.5.737-.5 1.179 0 .442.18.866.5 1.178.32.313.754.489 1.207.489h6.826c.452 0 .886-.176 1.206-.489.32-.312.5-.736.5-1.178 0-.442-.18-.866-.5-1.179a1.727 1.727 0 00-1.206-.488zm1.707-5H21.228a1.73 1.73 0 00-1.206.488c-.32.313-.5.737-.5 1.179 0 .442.18.866.5 1.178.32.313.754.489 1.206.489h10.24c.452 0 .886-.176 1.206-.489.32-.312.5-.736.5-1.178 0-.442-.18-.866-.5-1.179a1.728 1.728 0 00-1.207-.488zm6.977-36.803c-3.207-3.136-7.503-4.863-12.096-4.863a17.379 17.379 0 00-6.537 1.258 17.057 17.057 0 00-5.542 3.612 16.606 16.606 0 00-3.698 5.412 16.29 16.29 0 00-1.288 6.384c0 4.856 1.906 9.4 5.226 12.463l.465.426c1.921 1.754 4.548 4.157 4.548 6.278v2.5c0 .442.18.866.5 1.178.32.313.754.489 1.206.489h2.56a.864.864 0 00.603-.245.823.823 0 00.25-.589V39.398a.82.82 0 00-.15-.472.85.85 0 00-.397-.306 14.039 14.039 0 01-2.79-1.495 1.688 1.688 0 01-.493-.468 1.644 1.644 0 01-.256-1.292 1.69 1.69 0 01.783-1.07 1.733 1.733 0 011.335-.182c.223.06.432.163.613.304.789.545 2.309 1.354 3.062 1.354.753 0 2.273-.81 3.064-1.354a1.74 1.74 0 011.239-.224c.427.082.805.32 1.058.666a1.638 1.638 0 01-.318 2.266c-.868.6-1.804 1.1-2.79 1.492a.85.85 0 00-.397.306.82.82 0 00-.15.472v12.21c0 .22.09.432.25.588.16.157.377.245.604.245h2.56c.452 0 .886-.176 1.206-.489.32-.312.5-.736.5-1.178v-2.5c0-2.071 2.598-4.472 4.495-6.226l.524-.486c3.415-3.184 5.22-7.495 5.22-12.455a16.242 16.242 0 00-1.275-6.387 16.557 16.557 0 00-3.694-5.416z" fill="#fff"/><path d="M7.791 19.87L2 16.03m13.508-4.014l-2.56-6.566m25.56 6.566l2.56-6.566M26.388 2l.01 7.071m19.645 9.867L52 15.377" stroke="#fff" stroke-width="3" stroke-linecap="round"/></svg>