<svg width="50" height="50" fill="none" xmlns="http://www.w3.org/2000/svg"><path d="M49.225 11.393c.8 1.237.981 2.637.54 4.2L41.51 45.084c-.38 1.389-1.146 2.555-2.297 3.499-1.15.944-2.377 1.416-3.678 1.416H7.822c-1.541 0-3.027-.58-4.459-1.742-1.43-1.16-2.427-2.587-2.987-4.28-.48-1.454-.5-2.832-.06-4.134 0-.087.03-.38.09-.88.06-.498.1-.9.12-1.204.02-.173-.01-.407-.09-.7-.08-.292-.11-.504-.09-.634.04-.239.12-.467.24-.684a8.01 8.01 0 01.496-.765c.21-.293.375-.548.495-.765.46-.824.91-1.817 1.351-2.978.44-1.161.74-2.154.9-2.979.06-.217.066-.542.016-.976-.05-.434-.055-.738-.015-.912.06-.239.23-.542.51-.911.28-.37.45-.619.51-.749.42-.781.841-1.78 1.262-2.995.42-1.215.67-2.192.75-2.93.02-.195-.005-.542-.075-1.041-.07-.5-.065-.803.015-.912.08-.282.3-.613.66-.992.36-.38.581-.624.661-.733.38-.564.806-1.481 1.276-2.75.47-1.27.746-2.317.826-3.142.02-.173-.01-.45-.09-.83-.08-.38-.1-.667-.06-.862.04-.174.13-.37.27-.586.14-.217.32-.467.54-.75.22-.281.39-.51.51-.683.16-.26.326-.591.496-.993.17-.401.32-.78.45-1.139.13-.358.29-.749.48-1.172.191-.423.386-.77.586-1.041.2-.272.466-.527.796-.765a1.9 1.9 0 011.08-.375c.391-.01.867.05 1.427.18l-.03.097C17.439.098 17.95 0 18.21 0h22.85c1.48 0 2.622.608 3.422 1.823.801 1.215.981 2.626.54 4.232l-8.226 29.492c-.72 2.582-1.436 4.248-2.147 4.997-.71.748-1.996 1.123-3.858 1.123H4.7c-.541 0-.921.162-1.141.488-.22.347-.23.814-.03 1.4.48 1.519 1.921 2.278 4.323 2.278h27.712c.58 0 1.141-.168 1.682-.504.54-.337.89-.787 1.05-1.351l9.008-32.129c.14-.478.19-1.096.15-1.856.76.326 1.35.793 1.771 1.4zm-31.946.065c-.08.283-.06.527.06.733.12.206.32.309.601.309h18.255c.26 0 .515-.103.765-.31.25-.205.416-.45.496-.732l.63-2.083c.08-.282.06-.526-.06-.732-.12-.207-.32-.31-.6-.31H19.17c-.26 0-.515.103-.766.31-.25.206-.415.45-.495.732l-.63 2.083zm-2.492 8.334c-.08.282-.06.526.06.732.12.206.32.31.601.31h18.255c.26 0 .515-.104.765-.31.25-.206.416-.45.496-.732l.63-2.084c.08-.282.06-.526-.06-.732-.12-.206-.32-.31-.6-.31H16.679c-.26 0-.515.104-.766.31-.25.206-.415.45-.495.732l-.63 2.084z" fill="#fff"/></svg>