<svg width="50" height="50" fill="none" xmlns="http://www.w3.org/2000/svg"><path d="M0 6.249C0 2.802 2.492 0 5.557 0h16.89v12.498c0 1.728 1.242 2.124 2.78 2.124H36v11.262L25.803 36.37c-.894 1.006-1.52 2.255-1.823 3.632l-1.624 7.313c-.2.898-.156 1.836.113 2.685H5.557C2.492 50 0 47.198 0 43.751V6.25zm36 6.249H24.226V0L36 12.498zm11.734 10.515l1.25 1.406c1.355 1.523 1.355 3.993 0 5.526l-2.552 2.87-6.165-6.931 2.553-2.87c1.354-1.524 3.55-1.524 4.914 0zM27.079 40.715L38.297 28.1l6.164 6.932-11.217 12.605c-.356.4-.8.684-1.294.82l-5.218 1.465c-.477.137-.972-.02-1.32-.41a1.68 1.68 0 01-.364-1.484l1.302-5.868a3.259 3.259 0 01.73-1.455v.01z" fill="#fff"/></svg>