<svg width="49" height="64" fill="none" xmlns="http://www.w3.org/2000/svg"><path d="M.537 41.48h15.93c.12 2.52.93 4.53 2.43 6.03 1.44 1.56 3.48 2.34 6.12 2.34 2.46 0 4.5-.87 6.12-2.61 1.2-1.38 1.8-3.03 1.8-4.95 0-2.22-.78-3.99-2.34-5.31-1.38-1.14-3.3-1.71-5.76-1.71-1.02 0-1.89.12-2.61.36V25.1c2.64.36 4.77-.15 6.39-1.53 1.32-1.14 1.98-2.55 1.98-4.23 0-1.8-.54-3.24-1.62-4.32s-2.55-1.62-4.41-1.62c-1.86 0-3.3.51-4.32 1.53-1.38 1.26-2.07 3.03-2.07 5.31H3.687c.3-5.58 2.25-10.17 5.85-13.77 3.72-3.9 9-5.85 15.84-5.85 6.36 0 11.34 1.77 14.94 5.31 3.24 3.24 4.86 7.11 4.86 11.61 0 2.76-.6 5.22-1.8 7.38-1.14 2.1-2.67 3.63-4.59 4.59 2.94 1.08 5.31 2.91 7.11 5.49 1.68 2.46 2.52 5.4 2.52 8.82 0 5.22-1.77 9.6-5.31 13.14-4.26 4.26-10.23 6.39-17.91 6.39-7.02 0-12.75-2.07-17.19-6.21-4.38-4.02-6.87-9.24-7.47-15.66z" fill="#fff"/></svg>