<svg width="60" height="71" fill="none" xmlns="http://www.w3.org/2000/svg"><g filter="url(#filter0_bd_174_8)"><path d="M27.047.97h17.73l-17.1 20.43c2.82-1.26 5.61-1.89 8.37-1.89 5.22 0 9.75 1.92 13.59 5.76 3.78 3.78 5.67 8.55 5.67 14.31 0 6.3-2.07 11.52-6.21 15.66-4.74 4.74-11.13 7.11-19.17 7.11-8.4 0-14.97-2.43-19.71-7.29-3.66-3.78-5.49-8.46-5.49-14.04 0-7.08 2.97-14.55 8.91-22.41L27.047.97zm-4.5 45.99c1.98 2.04 4.35 3.06 7.11 3.06 2.76 0 5.07-.93 6.93-2.79 1.86-1.86 2.79-4.14 2.79-6.84 0-2.4-.93-4.5-2.79-6.3-1.92-1.86-4.23-2.79-6.93-2.79-2.58 0-4.83.87-6.75 2.61-1.98 1.8-2.97 3.87-2.97 6.21 0 2.7.87 4.98 2.61 6.84z" fill="#fff"/></g><defs><filter id="filter0_bd_174_8" x="-15.273" y="-19.03" width="90.58" height="101.38" filterUnits="userSpaceOnUse" color-interpolation-filters="sRGB"><feFlood flood-opacity="0" result="BackgroundImageFix"/><feGaussianBlur in="BackgroundImageFix" stdDeviation="10"/><feComposite in2="SourceAlpha" operator="in" result="effect1_backgroundBlur_174_8"/><feColorMatrix in="SourceAlpha" values="0 0 0 0 0 0 0 0 0 0 0 0 0 0 0 0 0 0 127 0" result="hardAlpha"/><feOffset dy="4"/><feGaussianBlur stdDeviation="2"/><feComposite in2="hardAlpha" operator="out"/><feColorMatrix values="0 0 0 0 0 0 0 0 0 0 0 0 0 0 0 0 0 0 0.25 0"/><feBlend in2="effect1_backgroundBlur_174_8" result="effect2_dropShadow_174_8"/><feBlend in="SourceGraphic" in2="effect2_dropShadow_174_8" result="shape"/></filter></defs></svg>