<svg width="53" height="71" fill="none" xmlns="http://www.w3.org/2000/svg"><g filter="url(#filter0_bd_174_6)"><path d="M44.567.97V14.2h-20.79l-1.08 6.66c1.86-.3 3.48-.45 4.86-.45 6.72 0 12 1.98 15.84 5.94 3.66 3.66 5.49 8.4 5.49 14.22 0 6.06-1.92 11.07-5.76 15.03-4.38 4.5-10.62 6.75-18.72 6.75-7.8 0-14.55-1.8-20.25-5.4l2.34-14.58c2.28 2.1 4.68 3.72 7.2 4.86 2.94 1.38 5.94 2.07 9 2.07 3.36 0 5.97-.99 7.83-2.97 1.56-1.68 2.34-3.72 2.34-6.12 0-2.64-.96-4.8-2.88-6.48-2.22-1.98-5.82-2.97-10.8-2.97-4.02 0-7.71.84-11.07 2.52L13.337.97h31.23z" fill="#fff"/></g><defs><filter id="filter0_bd_174_6" x="-15.843" y="-19.03" width="84.731" height="101.38" filterUnits="userSpaceOnUse" color-interpolation-filters="sRGB"><feFlood flood-opacity="0" result="BackgroundImageFix"/><feGaussianBlur in="BackgroundImageFix" stdDeviation="10"/><feComposite in2="SourceAlpha" operator="in" result="effect1_backgroundBlur_174_6"/><feColorMatrix in="SourceAlpha" values="0 0 0 0 0 0 0 0 0 0 0 0 0 0 0 0 0 0 127 0" result="hardAlpha"/><feOffset dy="4"/><feGaussianBlur stdDeviation="2"/><feComposite in2="hardAlpha" operator="out"/><feColorMatrix values="0 0 0 0 0 0 0 0 0 0 0 0 0 0 0 0 0 0 0.25 0"/><feBlend in2="effect1_backgroundBlur_174_6" result="effect2_dropShadow_174_6"/><feBlend in="SourceGraphic" in2="effect2_dropShadow_174_6" result="shape"/></filter></defs></svg>