<svg width="33" height="42" fill="none" xmlns="http://www.w3.org/2000/svg"><path d="M.191 27.32h10.62c.08 1.68.62 3.02 1.62 4.02.96 1.04 2.32 1.56 4.08 1.56 1.64 0 3-.58 4.08-1.74.8-.92 1.2-2.02 1.2-3.3 0-1.48-.52-2.66-1.56-3.54-.92-.76-2.2-1.14-3.84-1.14-.68 0-1.26.08-1.74.24V16.4c1.76.24 3.18-.1 4.26-1.02.88-.76 1.32-1.7 1.32-2.82 0-1.2-.36-2.16-1.08-2.88-.72-.72-1.7-1.08-2.94-1.08s-2.2.34-2.88 1.02c-.92.84-1.38 2.02-1.38 3.54h-9.66c.2-3.72 1.5-6.78 3.9-9.18 2.48-2.6 6-3.9 10.56-3.9 4.24 0 7.56 1.18 9.96 3.54 2.16 2.16 3.24 4.74 3.24 7.74 0 1.84-.4 3.48-1.2 4.92-.76 1.4-1.78 2.42-3.06 3.06 1.96.72 3.54 1.94 4.74 3.66 1.12 1.64 1.68 3.6 1.68 5.88 0 3.48-1.18 6.4-3.54 8.76-2.84 2.84-6.82 4.26-11.94 4.26-4.68 0-8.5-1.38-11.46-4.14-2.92-2.68-4.58-6.16-4.98-10.44z" fill="#fff"/></svg>