<svg width="31" height="42" fill="none" xmlns="http://www.w3.org/2000/svg"><path d="M27.212.98V9.8h-13.86l-.72 4.44c1.24-.2 2.32-.3 3.24-.3 4.48 0 8 1.32 10.56 3.96 2.44 2.44 3.66 5.6 3.66 9.48 0 4.04-1.28 7.38-3.84 10.02-2.92 3-7.08 4.5-12.48 4.5-5.2 0-9.7-1.2-13.5-3.6l1.56-9.72c1.52 1.4 3.12 2.48 4.8 3.24 1.96.92 3.96 1.38 6 1.38 2.24 0 3.98-.66 5.22-1.98 1.04-1.12 1.56-2.48 1.56-4.08 0-1.76-.64-3.2-1.92-4.32-1.48-1.32-3.88-1.98-7.2-1.98-2.68 0-5.14.56-7.38 1.68L6.391.98h20.82z" fill="#fff"/></svg>