<svg width="35" height="42" fill="none" xmlns="http://www.w3.org/2000/svg"><path d="M15.531.98h11.82l-11.4 13.62c1.88-.84 3.74-1.26 5.58-1.26 3.48 0 6.5 1.28 9.06 3.84 2.52 2.52 3.78 5.7 3.78 9.54 0 4.2-1.38 7.68-4.14 10.44-3.16 3.16-7.42 4.74-12.78 4.74-5.6 0-9.98-1.62-13.14-4.86-2.44-2.52-3.66-5.64-3.66-9.36 0-4.72 1.98-9.7 5.94-14.94L15.531.98zm-3 30.66c1.32 1.36 2.9 2.04 4.74 2.04 1.84 0 3.38-.62 4.62-1.86 1.24-1.24 1.86-2.76 1.86-4.56 0-1.6-.62-3-1.86-4.2-1.28-1.24-2.82-1.86-4.62-1.86-1.72 0-3.22.58-4.5 1.74-1.32 1.2-1.98 2.58-1.98 4.14 0 1.8.58 3.32 1.74 4.56z" fill="#fff"/></svg>