<svg width="33" height="41" viewBox="0 0 33 41" fill="none" xmlns="http://www.w3.org/2000/svg">
<path d="M32.1713 32.1801V41.0001H0.0712891L10.2113 30.3801C13.8513 26.5801 16.5913 23.2001 18.4313 20.2401C19.8713 18.0001 20.5913 15.9201 20.5913 14.0001C20.5913 12.3201 20.1913 11.0401 19.3913 10.1601C18.6713 9.36008 17.6913 8.96008 16.4513 8.96008C14.9713 8.96008 13.8113 9.50008 12.9713 10.5801C12.0913 11.7001 11.6113 13.3401 11.5313 15.5001H0.791289C0.831289 11.0201 2.31129 7.32008 5.23129 4.40008C8.11129 1.52008 11.8913 0.0800781 16.5713 0.0800781C21.3313 0.0800781 25.0913 1.46008 27.8513 4.22008C30.4513 6.82008 31.7513 10.1001 31.7513 14.0601C31.7513 18.3001 29.7713 22.2601 25.8113 25.9401L19.0913 32.1801H32.1713Z" fill="white"/>
</svg>
