<svg width="33" height="42" viewBox="0 0 33 42" fill="none" xmlns="http://www.w3.org/2000/svg">
<path d="M0.191406 27.3201H10.8114C10.8914 29.0001 11.4314 30.3401 12.4314 31.3401C13.3914 32.3801 14.7514 32.9001 16.5114 32.9001C18.1514 32.9001 19.5114 32.3201 20.5914 31.1601C21.3914 30.2401 21.7914 29.1401 21.7914 27.8601C21.7914 26.3801 21.2714 25.2001 20.2314 24.3201C19.3114 23.5601 18.0314 23.1801 16.3914 23.1801C15.7114 23.1801 15.1314 23.2601 14.6514 23.4201V16.4001C16.4114 16.6401 17.8314 16.3001 18.9114 15.3801C19.7914 14.6201 20.2314 13.6801 20.2314 12.5601C20.2314 11.3601 19.8714 10.4001 19.1514 9.68008C18.4314 8.96008 17.4514 8.60008 16.2114 8.60008C14.9714 8.60008 14.0114 8.94008 13.3314 9.62008C12.4114 10.4601 11.9514 11.6401 11.9514 13.1601H2.29141C2.49141 9.44008 3.79141 6.38008 6.19141 3.98008C8.67141 1.38008 12.1914 0.0800781 16.7514 0.0800781C20.9914 0.0800781 24.3114 1.26008 26.7114 3.62008C28.8714 5.78008 29.9514 8.36008 29.9514 11.3601C29.9514 13.2001 29.5514 14.8401 28.7514 16.2801C27.9914 17.6801 26.9714 18.7001 25.6914 19.3401C27.6514 20.0601 29.2314 21.2801 30.4314 23.0001C31.5514 24.6401 32.1114 26.6001 32.1114 28.8801C32.1114 32.3601 30.9314 35.2801 28.5714 37.6401C25.7314 40.4801 21.7514 41.9001 16.6314 41.9001C11.9514 41.9001 8.13141 40.5201 5.17141 37.7601C2.25141 35.0801 0.591406 31.6001 0.191406 27.3201Z" fill="white"/>
</svg>
