<svg width="49" height="62" viewBox="0 0 49 62" fill="none" xmlns="http://www.w3.org/2000/svg">
<path d="M48.5074 48.7701V62.0001H0.357422L15.5674 46.0701C21.0274 40.3701 25.1374 35.3001 27.8974 30.8601C30.0574 27.5001 31.1374 24.3801 31.1374 21.5001C31.1374 18.9801 30.5374 17.0601 29.3374 15.7401C28.2574 14.5401 26.7874 13.9401 24.9274 13.9401C22.7074 13.9401 20.9674 14.7501 19.7074 16.3701C18.3874 18.0501 17.6674 20.5101 17.5474 23.7501H1.43742C1.49742 17.0301 3.71742 11.4801 8.09742 7.10012C12.4174 2.78012 18.0874 0.620117 25.1074 0.620117C32.2474 0.620117 37.8874 2.69012 42.0274 6.83012C45.9274 10.7301 47.8774 15.6501 47.8774 21.5901C47.8774 27.9501 44.9074 33.8901 38.9674 39.4101L28.8874 48.7701H48.5074Z" fill="white"/>
</svg>
