<svg width="35" height="42" viewBox="0 0 35 42" fill="none" xmlns="http://www.w3.org/2000/svg">
<path d="M15.5314 0.980469H27.3514L15.9514 14.6005C17.8314 13.7605 19.6914 13.3405 21.5314 13.3405C25.0114 13.3405 28.0314 14.6205 30.5914 17.1805C33.1114 19.7005 34.3714 22.8805 34.3714 26.7205C34.3714 30.9205 32.9914 34.4005 30.2314 37.1605C27.0714 40.3205 22.8114 41.9005 17.4514 41.9005C11.8514 41.9005 7.47137 40.2805 4.31137 37.0405C1.87137 34.5205 0.651367 31.4005 0.651367 27.6805C0.651367 22.9605 2.63137 17.9805 6.59137 12.7405L15.5314 0.980469ZM12.5314 31.6405C13.8514 33.0005 15.4314 33.6805 17.2714 33.6805C19.1114 33.6805 20.6514 33.0605 21.8914 31.8205C23.1314 30.5805 23.7514 29.0605 23.7514 27.2605C23.7514 25.6605 23.1314 24.2605 21.8914 23.0605C20.6114 21.8205 19.0714 21.2005 17.2714 21.2005C15.5514 21.2005 14.0514 21.7805 12.7714 22.9405C11.4514 24.1405 10.7914 25.5205 10.7914 27.0805C10.7914 28.8805 11.3714 30.4005 12.5314 31.6405Z" fill="white"/>
</svg>
