<svg width="49" height="64" viewBox="0 0 49 64" fill="none" xmlns="http://www.w3.org/2000/svg">
<path d="M0.537109 41.4801H16.4671C16.5871 44.0001 17.3971 46.0101 18.8971 47.5101C20.3371 49.0701 22.3771 49.8501 25.0171 49.8501C27.4771 49.8501 29.5171 48.9801 31.1371 47.2401C32.3371 45.8601 32.9371 44.2101 32.9371 42.2901C32.9371 40.0701 32.1571 38.3001 30.5971 36.9801C29.2171 35.8401 27.2971 35.2701 24.8371 35.2701C23.8171 35.2701 22.9471 35.3901 22.2271 35.6301V25.1001C24.8671 25.4601 26.9971 24.9501 28.6171 23.5701C29.9371 22.4301 30.5971 21.0201 30.5971 19.3401C30.5971 17.5401 30.0571 16.1001 28.9771 15.0201C27.8971 13.9401 26.4271 13.4001 24.5671 13.4001C22.7071 13.4001 21.2671 13.9101 20.2471 14.9301C18.8671 16.1901 18.1771 17.9601 18.1771 20.2401H3.68711C3.98711 14.6601 5.93711 10.0701 9.53711 6.47012C13.2571 2.57012 18.5371 0.620117 25.3771 0.620117C31.7371 0.620117 36.7171 2.39012 40.3171 5.93012C43.5571 9.17012 45.1771 13.0401 45.1771 17.5401C45.1771 20.3001 44.5771 22.7601 43.3771 24.9201C42.2371 27.0201 40.7071 28.5501 38.7871 29.5101C41.7271 30.5901 44.0971 32.4201 45.8971 35.0001C47.5771 37.4601 48.4171 40.4001 48.4171 43.8201C48.4171 49.0401 46.6471 53.4201 43.1071 56.9601C38.8471 61.2201 32.8771 63.3501 25.1971 63.3501C18.1771 63.3501 12.4471 61.2801 8.00711 57.1401C3.62711 53.1201 1.13711 47.9001 0.537109 41.4801Z" fill="white"/>
</svg>
