<svg width="31" height="42" viewBox="0 0 31 42" fill="none" xmlns="http://www.w3.org/2000/svg">
<path d="M27.2115 0.980469V9.80047H13.3515L12.6315 14.2405C13.8715 14.0405 14.9515 13.9405 15.8715 13.9405C20.3515 13.9405 23.8715 15.2605 26.4315 17.9005C28.8715 20.3405 30.0915 23.5005 30.0915 27.3805C30.0915 31.4205 28.8115 34.7605 26.2515 37.4005C23.3315 40.4005 19.1715 41.9005 13.7715 41.9005C8.57149 41.9005 4.07148 40.7005 0.271484 38.3005L1.83148 28.5805C3.35148 29.9805 4.95148 31.0605 6.63148 31.8205C8.59148 32.7405 10.5915 33.2005 12.6315 33.2005C14.8715 33.2005 16.6115 32.5405 17.8515 31.2205C18.8915 30.1005 19.4115 28.7405 19.4115 27.1405C19.4115 25.3805 18.7715 23.9405 17.4915 22.8205C16.0115 21.5005 13.6115 20.8405 10.2915 20.8405C7.61148 20.8405 5.15148 21.4005 2.91148 22.5205L6.39148 0.980469H27.2115Z" fill="white"/>
</svg>
