<svg width="45" height="45" viewBox="0 0 45 45" fill="none" xmlns="http://www.w3.org/2000/svg">
<g filter="url(#filter0_i_172_188)">
<circle cx="22.5" cy="22.5" r="22.5" fill="#DA3A30"/>
</g>
<path fill-rule="evenodd" clip-rule="evenodd" d="M23.5838 29.7002C23.3195 29.9738 22.9582 30.1305 22.5791 30.1359C22.2 30.1413 21.8343 29.995 21.5624 29.7291L13.3589 21.7056C13.0946 21.4379 12.9453 21.0765 12.9432 20.6993C12.941 20.322 13.0862 19.9589 13.3474 19.6884C13.6087 19.4178 13.9651 19.2614 14.3398 19.2527C14.7146 19.2441 15.0778 19.384 15.3512 19.6422L22.5294 26.663L29.5038 19.4397C29.7697 19.1737 30.1287 19.0235 30.5036 19.0215C30.8785 19.0194 31.2392 19.1656 31.5081 19.4285C31.7769 19.6915 31.9324 20.0502 31.9411 20.4274C31.9498 20.8046 31.8109 21.1701 31.5543 21.4452L23.5838 29.7002Z" fill="white"/>
<defs>
<filter id="filter0_i_172_188" x="0" y="0" width="45" height="49" filterUnits="userSpaceOnUse" color-interpolation-filters="sRGB">
<feFlood flood-opacity="0" result="BackgroundImageFix"/>
<feBlend mode="normal" in="SourceGraphic" in2="BackgroundImageFix" result="shape"/>
<feColorMatrix in="SourceAlpha" type="matrix" values="0 0 0 0 0 0 0 0 0 0 0 0 0 0 0 0 0 0 127 0" result="hardAlpha"/>
<feOffset dy="4"/>
<feGaussianBlur stdDeviation="2"/>
<feComposite in2="hardAlpha" operator="arithmetic" k2="-1" k3="1"/>
<feColorMatrix type="matrix" values="0 0 0 0 0 0 0 0 0 0 0 0 0 0 0 0 0 0 0.25 0"/>
<feBlend mode="normal" in2="shape" result="effect1_innerShadow_172_188"/>
</filter>
</defs>
</svg>
