<svg width="50" height="51" viewBox="0 0 50 51" fill="none" xmlns="http://www.w3.org/2000/svg">
<path d="M44.0476 24.1562H40.4762V14.6324C40.4762 13.3695 39.9745 12.1582 39.0815 11.2652C38.1884 10.3722 36.9772 9.87049 35.7143 9.87049H26.1905V6.29906C26.1905 4.72039 25.5634 3.20638 24.4471 2.09009C23.3308 0.973804 21.8168 0.34668 20.2381 0.34668C18.6594 0.34668 17.1454 0.973804 16.0291 2.09009C14.9128 3.20638 14.2857 4.72039 14.2857 6.29906V9.87049H4.7619C3.49897 9.87049 2.28776 10.3722 1.39473 11.2652C0.501699 12.1582 0 13.3695 0 14.6324V23.68H3.57143C7.14286 23.68 10 26.5372 10 30.1086C10 33.68 7.14286 36.5372 3.57143 36.5372H0V45.5848C0 46.8477 0.501699 48.0589 1.39473 48.9519C2.28776 49.845 3.49897 50.3467 4.7619 50.3467H13.8095V46.7753C13.8095 43.2038 16.6667 40.3467 20.2381 40.3467C23.8095 40.3467 26.6667 43.2038 26.6667 46.7753V50.3467H35.7143C36.9772 50.3467 38.1884 49.845 39.0815 48.9519C39.9745 48.0589 40.4762 46.8477 40.4762 45.5848V36.061H44.0476C45.6263 36.061 47.1403 35.4338 48.2566 34.3176C49.3729 33.2013 50 31.6873 50 30.1086C50 28.5299 49.3729 27.0159 48.2566 25.8996C47.1403 24.7833 45.6263 24.1562 44.0476 24.1562Z" fill="white"/>
</svg>
