<svg width="50" height="50" viewBox="0 0 50 50" fill="none" xmlns="http://www.w3.org/2000/svg">
<path d="M49.2252 11.3932C50.0258 12.6302 50.206 14.0299 49.7656 15.5924L41.509 45.0846C41.1287 46.4735 40.3631 47.64 39.2121 48.584C38.0612 49.528 36.8352 50 35.5342 50H7.82193C6.2807 50 4.7945 49.4195 3.36335 48.2585C1.9322 47.0974 0.936404 45.6706 0.375954 43.9779C-0.104432 42.5239 -0.124448 41.1458 0.315906 39.8437C0.315906 39.7569 0.34593 39.464 0.405978 38.9648C0.466026 38.4657 0.506059 38.0642 0.526075 37.7604C0.546091 37.5868 0.516067 37.3535 0.436002 37.0605C0.355938 36.7676 0.325914 36.556 0.34593 36.4258C0.385962 36.1871 0.466026 35.9592 0.586123 35.7422C0.706219 35.5252 0.871352 35.2702 1.08152 34.9772C1.29169 34.6842 1.45682 34.4293 1.57692 34.2122C2.03729 33.3876 2.48765 32.3947 2.928 31.2337C3.36836 30.0727 3.6686 29.0799 3.82873 28.2552C3.88878 28.0382 3.89378 27.7127 3.84374 27.2786C3.7937 26.8446 3.78869 26.5408 3.82873 26.3672C3.88878 26.1285 4.05891 25.8247 4.33914 25.4557C4.61936 25.0868 4.7895 24.8372 4.84955 24.707C5.26988 23.9258 5.69022 22.9275 6.11056 21.7122C6.5309 20.497 6.7811 19.5204 6.86116 18.7826C6.88118 18.5872 6.85616 18.24 6.7861 17.7409C6.71605 17.2418 6.72105 16.9379 6.80111 16.8294C6.88118 16.5473 7.10136 16.2164 7.46164 15.8366C7.82193 15.4568 8.04211 15.2127 8.12217 15.1042C8.50248 14.5399 8.92782 13.623 9.3982 12.3535C9.86858 11.084 10.1438 10.0369 10.2239 9.21224C10.2439 9.03863 10.2139 8.76194 10.1338 8.38216C10.0537 8.00239 10.0337 7.71484 10.0737 7.51953C10.1138 7.34592 10.2038 7.15061 10.344 6.93359C10.4841 6.71658 10.6642 6.46701 10.8844 6.1849C11.1046 5.90278 11.2747 5.67491 11.3948 5.5013C11.5549 5.24089 11.7201 4.90994 11.8902 4.50846C12.0603 4.10699 12.2105 3.72721 12.3406 3.36914C12.4707 3.01107 12.6308 2.62044 12.8209 2.19727C13.0111 1.77409 13.2063 1.42687 13.4064 1.1556C13.6066 0.884332 13.8718 0.62934 14.2021 0.390625C14.5323 0.15191 14.8926 0.0271267 15.2829 0.016276C15.6732 0.00542535 16.1486 0.0651042 16.7091 0.195312L16.679 0.292969C17.4397 0.0976562 17.9501 0 18.2103 0H41.0586C42.5398 0 43.6807 0.607639 44.4814 1.82292C45.282 3.03819 45.4622 4.44878 45.0218 6.05469L36.7952 35.5469C36.0746 38.1293 35.359 39.7949 34.6485 40.5436C33.9379 41.2923 32.6519 41.6667 30.7904 41.6667H4.69943C4.15899 41.6667 3.77869 41.8294 3.55851 42.1549C3.33833 42.5022 3.32832 42.9687 3.52849 43.5547C4.00887 45.0738 5.45003 45.8333 7.85196 45.8333H35.5642C36.1447 45.8333 36.7051 45.6651 37.2456 45.3288C37.786 44.9924 38.1363 44.5421 38.2964 43.9779L47.3036 11.849C47.4438 11.3715 47.4938 10.753 47.4538 9.99349C48.2144 10.319 48.8048 10.7856 49.2252 11.3932ZM17.2795 11.4583C17.1995 11.7405 17.2195 11.9846 17.3396 12.1908C17.4597 12.3969 17.6598 12.5 17.9401 12.5H36.1947C36.4549 12.5 36.7101 12.3969 36.9603 12.1908C37.2105 11.9846 37.3757 11.7405 37.4557 11.4583L38.0862 9.375C38.1663 9.09288 38.1463 8.84874 38.0262 8.64258C37.9061 8.43641 37.7059 8.33333 37.4257 8.33333H19.171C18.9108 8.33333 18.6556 8.43641 18.4054 8.64258C18.1552 8.84874 17.9901 9.09288 17.91 9.375L17.2795 11.4583ZM14.7875 19.7917C14.7075 20.0738 14.7275 20.3179 14.8476 20.5241C14.9677 20.7303 15.1678 20.8333 15.4481 20.8333H33.7027C33.9629 20.8333 34.2181 20.7303 34.4683 20.5241C34.7185 20.3179 34.8837 20.0738 34.9637 19.7917L35.5942 17.7083C35.6743 17.4262 35.6543 17.1821 35.5342 16.9759C35.4141 16.7697 35.2139 16.6667 34.9337 16.6667H16.679C16.4188 16.6667 16.1636 16.7697 15.9134 16.9759C15.6632 17.1821 15.4981 17.4262 15.418 17.7083L14.7875 19.7917Z" fill="white"/>
</svg>
