<svg width="54" height="63" viewBox="0 0 54 63" fill="none" xmlns="http://www.w3.org/2000/svg">
<path d="M29.7607 59.1042H22.9349C22.4823 59.1042 22.0483 59.2798 21.7282 59.5923C21.4082 59.9049 21.2284 60.3288 21.2284 60.7708C21.2284 61.2129 21.4082 61.6368 21.7282 61.9493C22.0483 62.2619 22.4823 62.4375 22.9349 62.4375H29.7607C30.2133 62.4375 30.6473 62.2619 30.9673 61.9493C31.2874 61.6368 31.4672 61.2129 31.4672 60.7708C31.4672 60.3288 31.2874 59.9049 30.9673 59.5923C30.6473 59.2798 30.2133 59.1042 29.7607 59.1042ZM31.4672 54.1042H21.2284C20.7758 54.1042 20.3418 54.2798 20.0218 54.5923C19.7018 54.9049 19.522 55.3288 19.522 55.7708C19.522 56.2129 19.7018 56.6368 20.0218 56.9494C20.3418 57.2619 20.7758 57.4375 21.2284 57.4375H31.4672C31.9197 57.4375 32.3538 57.2619 32.6738 56.9494C32.9938 56.6368 33.1736 56.2129 33.1736 55.7708C33.1736 55.3288 32.9938 54.9049 32.6738 54.5923C32.3538 54.2798 31.9197 54.1042 31.4672 54.1042ZM38.4444 17.3011C35.2373 14.1646 30.9414 12.4375 26.3478 12.4375C24.1053 12.4323 21.8839 12.8599 19.8112 13.6956C17.7384 14.5313 15.8551 15.7588 14.2694 17.3075C12.6838 18.8561 11.427 20.6955 10.5713 22.72C9.71565 24.7444 9.27791 26.914 9.28325 29.1042C9.28325 33.9604 11.1891 38.5031 14.5093 41.5667L14.9743 41.9927C16.8951 43.7469 19.522 46.15 19.522 48.2708V50.7708C19.522 51.2129 19.7018 51.6368 20.0218 51.9494C20.3418 52.2619 20.7758 52.4375 21.2284 52.4375H23.7881C24.0144 52.4375 24.2314 52.3497 24.3914 52.1934C24.5514 52.0372 24.6413 51.8252 24.6413 51.6042V39.3979C24.6414 39.2294 24.5891 39.0648 24.4915 38.9259C24.3938 38.787 24.2553 38.6803 24.0942 38.6198C23.1088 38.2272 22.1727 37.7257 21.3042 37.125C21.109 37.0033 20.9412 36.844 20.8111 36.6569C20.6809 36.4698 20.5911 36.2588 20.5472 36.0368C20.5032 35.8147 20.506 35.5862 20.5553 35.3652C20.6047 35.1442 20.6995 34.9353 20.8342 34.7513C20.9688 34.5673 21.1404 34.4119 21.3385 34.2948C21.5366 34.1776 21.757 34.101 21.9864 34.0697C22.2158 34.0384 22.4492 34.053 22.6726 34.1127C22.896 34.1723 23.1046 34.2758 23.2858 34.4167C24.075 34.9625 25.5948 35.7709 26.3478 35.7709C27.1008 35.7709 28.6206 34.9604 29.4119 34.4167C29.7804 34.1904 30.2235 34.1103 30.6505 34.1925C31.0775 34.2748 31.4562 34.5134 31.7091 34.8593C31.9619 35.2053 32.0699 35.6326 32.0109 36.0538C31.9518 36.475 31.7302 36.8582 31.3914 37.125C30.5227 37.7246 29.5866 38.225 28.6014 38.6167C28.4403 38.6771 28.3018 38.7839 28.2041 38.9228C28.1064 39.0617 28.0542 39.2263 28.0542 39.3948V51.6042C28.0542 51.8252 28.1441 52.0372 28.3041 52.1934C28.4642 52.3497 28.6812 52.4375 28.9075 52.4375H31.4672C31.9197 52.4375 32.3538 52.2619 32.6738 51.9494C32.9938 51.6368 33.1736 51.2129 33.1736 50.7708V48.2708C33.1736 46.2 35.7717 43.799 37.669 42.0448L38.1927 41.5594C41.6078 38.375 43.4123 34.0636 43.4123 29.1042C43.4236 26.9138 42.9904 24.743 42.1377 22.7171C41.285 20.6912 40.0297 18.8504 38.4444 17.3011Z" fill="white"/>
<path d="M7.79113 19.8692L2 16.0312" stroke="white" stroke-width="3" stroke-linecap="round"/>
<path d="M15.5084 12.0158L12.9482 5.4502" stroke="white" stroke-width="3" stroke-linecap="round"/>
<path d="M38.5082 12.0158L41.0684 5.4502" stroke="white" stroke-width="3" stroke-linecap="round"/>
<path d="M26.3881 2.00023L26.3984 9.07129" stroke="white" stroke-width="3" stroke-linecap="round"/>
<path d="M46.0429 18.9378L52 15.377" stroke="white" stroke-width="3" stroke-linecap="round"/>
</svg>
