<svg width="50" height="50" viewBox="0 0 50 50" fill="none" xmlns="http://www.w3.org/2000/svg">
<path d="M0 6.24878C0 2.80219 2.49175 0 5.55652 0H22.4478V12.4976C22.4478 14.2257 23.6894 14.6219 25.2261 14.6219H36V25.8836L25.8031 36.3699C24.9088 37.3755 24.2837 38.6253 23.9799 40.002L22.3563 47.315C22.1566 48.2132 22.2 49.1506 22.4692 50H5.55652C2.49175 50 0 47.1978 0 43.7512V6.24878ZM36 12.4976H24.2261V0L36 12.4976ZM47.734 23.0131L48.9842 24.4191C50.3386 25.9422 50.3386 28.4124 48.9842 29.9453L46.4317 32.8159L40.2674 25.8836L42.8199 23.0131C44.1743 21.4899 46.3709 21.4899 47.734 23.0131ZM27.0794 40.7147L38.2966 28.1L44.4608 35.0322L33.2436 47.6372C32.8877 48.0375 32.4449 48.3206 31.95 48.4573L26.7321 49.9219C26.2546 50.0586 25.7597 49.9024 25.4124 49.5118C25.0651 49.1213 24.9262 48.5647 25.0478 48.0277L26.3501 42.1597C26.4716 41.613 26.7234 41.1053 27.0794 40.7049V40.7147Z" fill="white"/>
</svg>
